<svg width="530" height="572" viewBox="0 0 530 572" fill="none" xmlns="http://www.w3.org/2000/svg">
<path d="M14.0001 0H515.447C522.074 0 527.447 5.37261 527.447 12V513.447C527.447 520.074 522.074 525.447 515.447 525.447H14C7.37262 525.447 2 520.074 2 513.447V12C2 5.37258 7.37262 0 14.0001 0Z" stroke="black" stroke-width="4" stroke-miterlimit="10"/>
<path d="M416.362 526.403H141.827C140.674 515.912 182.726 292.825 232.123 221.108C237.731 212.969 285.737 207.047 303.36 227.292C396.713 334.5 418.617 523.833 416.362 526.403Z" fill="black"/>
<path d="M225.612 239.622C217.819 259.809 188.424 330.584 172.447 381.378C161.726 415.465 157.643 444.073 155.298 451.59C155.298 451.59 236.359 425.552 254.611 425.507C282.718 425.437 327.809 484.145 316.748 491.496C299.361 503.063 216.48 542.399 150.293 554.748C114.316 561.464 46.5262 515.733 51.8838 479.377C59.4009 428.353 151.607 293.857 186.687 255.72C204.9 235.924 235.11 215.02 225.612 239.622Z" fill="#FF9581"/>
<path d="M46.9428 490.163C48.641 526.916 94.6157 557.856 121.282 559.49C167.269 562.278 305.225 522.103 305.225 522.103L251.599 418.791C251.599 418.791 157.727 450.654 155.343 451.551V451.513C156.17 448.777 179.304 361.845 189.641 333.039C190.192 331.449 190.833 329.822 191.436 328.111C194.409 320.132 198.491 309.596 203.003 298.215L203.048 298.132C205.547 291.832 208.187 285.244 210.783 278.746V278.707C222.12 250.542 233.168 223.735 233.168 223.735C217.364 226.331 201.76 234.636 176.138 261.526C150.568 288.384 44.1358 429.532 46.9428 490.163Z" fill="black"/>
<path d="M269.472 499.75C265.646 492.438 261.756 485.157 257.917 477.852C254.149 470.7 250.336 463.574 246.491 456.46C242.518 449.103 238.346 441.759 235.135 434.03C235.077 433.883 235.276 433.761 235.372 433.889C240.198 440.253 244.171 447.27 248.138 454.185C252.246 461.35 256.251 468.579 260.218 475.827C264.108 482.927 267.851 490.098 271.542 497.295C275.336 504.703 279.168 512.381 281.911 520.251C282.02 520.565 281.584 520.872 281.379 520.565C276.944 513.983 273.15 506.773 269.472 499.75Z" fill="#2B454E"/>
<path d="M126.633 466.797L155.298 451.596L155.343 451.558V451.519C156.169 448.783 179.304 361.851 189.641 333.045C190.192 331.456 190.833 329.828 191.435 328.117C194.409 320.138 198.491 309.603 203.003 298.221L126.633 466.797Z" fill="#1C1C1C"/>
<path d="M102.902 479.409C110.861 473.462 119.442 468.143 128.087 463.253C132.406 460.805 136.816 458.556 141.346 456.531C146.166 454.378 151.26 452.82 156.047 450.654C156.413 450.488 156.682 451.052 156.317 451.218C151.844 453.243 147.595 456.063 143.275 458.415C138.783 460.863 134.271 463.273 129.721 465.612C120.788 470.207 112.015 475.083 103.132 479.775C102.921 479.89 102.703 479.557 102.902 479.409Z" fill="#1C1C1C"/>
<path d="M123.774 457.153C130.971 457.249 174.408 445.649 180.733 451.609C219.287 487.952 231.476 480.633 239.685 485.369C303.213 521.917 388.049 564.854 418.329 565.123C464.252 565.495 482.542 526.954 474.897 490.541C459.805 418.56 362.729 278.208 318.805 240.91C295.516 221.165 297.355 250.946 306.987 283.322C312.64 302.304 322.522 330.527 332.602 358.224C341.529 382.897 365.19 445.944 365.6 447.424V447.463C365.638 447.546 365.677 447.591 365.67 447.636C365.702 447.802 365.536 447.835 365.164 447.732C363.145 447.36 308.82 421.758 254.188 407.692C234.937 402.738 194.845 395.676 180.471 402.091C171.922 405.904 171.781 411.005 171.781 411.005C171.781 411.005 164.93 410.383 157.701 416.33C152.908 420.278 151.421 425.86 151.421 425.86C151.421 425.86 143.923 426.911 140.02 431.256C135.367 436.44 134.957 441.926 134.957 441.926C124.832 444.63 123.774 457.153 123.774 457.153Z" fill="white"/>
<path d="M187.943 409.486C193.736 409.569 199.388 410.409 205.079 411.408C205.464 411.479 205.451 412.075 205.041 412.03C199.452 411.415 193.794 411.287 188.18 411.101C182.598 410.915 176.927 410.793 171.345 410.909C171.313 410.909 171.306 410.851 171.338 410.845C176.907 409.928 182.278 409.403 187.943 409.486Z" fill="#1A2E35"/>
<path d="M151.581 425.527C161.527 422.797 169.454 421.284 181.945 422.848C182.348 422.899 182.316 423.495 181.919 423.469C170.05 422.733 162.309 423.937 151.6 425.738C151.478 425.764 151.472 425.559 151.581 425.527Z" fill="#1A2E35"/>
<path d="M135.066 441.593C145.038 437.491 152.715 436.209 163.783 436.209C164.174 436.209 164.302 436.786 163.898 436.825C153.279 437.837 145.512 439.362 135.214 442.041C134.957 442.105 134.823 441.695 135.066 441.593Z" fill="#1A2E35"/>
<path d="M256.841 408.326C261.609 408.948 266.377 410.351 271.042 411.498C276.015 412.722 280.975 414.075 285.846 415.683C295.6 418.9 305.065 422.758 314.402 427.013C314.761 427.18 314.569 427.731 314.184 427.597C304.674 424.264 295.068 421.143 285.455 418.118C280.725 416.632 276.028 415.049 271.318 413.511C266.486 411.928 261.455 410.729 256.706 408.929C256.386 408.807 256.482 408.275 256.841 408.326Z" fill="#1A2E35"/>
<path d="M294.837 418.624C284.782 415.222 280.238 415.202 280.238 415.202L223.081 511.721C223.081 511.721 380.512 568.398 412.83 571.711C445.155 575.024 481.927 549.57 482.549 508.991C483.42 451.955 390.413 314.986 343.625 262.02C322.182 237.744 297.182 220.114 290.806 224.094C283.276 228.791 296.952 259.315 304.161 282.085C317.465 324.118 365.151 447.732 365.151 447.732C365.151 447.732 306.814 422.681 294.837 418.624Z" fill="black"/>
<path d="M280.751 415.125C289.62 415.645 327.963 429 346.765 437.068C365.504 445.111 383.531 454.653 400.443 466.073C410.011 472.533 419.092 479.563 428.064 486.824C428.371 487.074 428.038 487.574 427.705 487.337C411.171 475.513 393.509 464.964 375.635 455.307C357.852 445.7 339.741 436.581 320.894 429.231C310.16 425.046 291.703 418.778 281.219 416.029C278.252 415.247 280.475 415.106 280.751 415.125Z" fill="#1C1C1C"/>
<path d="M318.497 330.725C320.894 334.596 323.323 338.441 325.374 342.517C325.47 342.709 325.559 342.901 325.656 343.094C322.612 333.833 319.721 324.547 316.953 315.197C316.78 314.621 317.735 314.313 317.953 314.871C331.481 349.131 344.035 383.807 356.211 418.573C359.621 428.295 362.607 438.119 365.702 447.937C365.811 448.277 365.254 448.45 365.113 448.129C361.396 439.709 357.653 431.345 354.25 422.777C350.847 414.215 347.688 405.558 344.49 396.919C338.902 381.814 333.576 366.632 328.443 351.374C326.835 348.701 325.213 346.035 323.695 343.318C321.484 339.351 319.664 335.198 317.818 331.052C317.619 330.597 318.247 330.322 318.497 330.725Z" fill="#1C1C1C"/>
<path d="M261.384 490.701C265.576 483.588 269.703 476.442 273.875 469.322C277.963 462.344 281.994 455.339 286.006 448.322C290.152 441.061 294.183 433.64 299.047 426.828C299.137 426.699 299.355 426.808 299.291 426.956C296.439 434.415 292.581 441.497 288.8 448.514C284.885 455.788 280.86 463.004 276.803 470.2C272.83 477.25 268.722 484.216 264.557 491.156C260.276 498.289 255.777 505.601 250.541 512.086C250.33 512.343 249.843 512.144 249.99 511.798C253.239 504.556 257.36 497.533 261.384 490.701Z" fill="#1C1C1C"/>
<path d="M220.806 511.926C225.548 502.576 232.924 493.393 238.384 484.498C238.589 484.158 239.096 484.511 238.897 484.85C233.937 493.194 229.393 502.185 224.651 510.67C246.273 519.597 269.229 527.557 291.28 535.369C313.909 543.392 336.685 550.993 359.774 557.645C372.681 561.362 385.607 565.393 398.591 568.802C399.398 569.013 399.18 569.68 398.354 569.52C374.995 565.123 352.059 558.375 329.443 551.198C306.379 543.879 283.616 535.702 260.962 527.236C248.215 522.475 220.421 512.683 220.806 511.926Z" fill="#1C1C1C"/>
<path d="M258.296 408.39C288.025 416.003 322.233 428.532 337.562 434.53C337.966 434.671 338.331 434.812 338.697 434.947C352.2 440.253 360.563 444.188 362.569 444.521C362.735 444.444 362.863 444.329 362.991 444.252V444.214C364.395 443.201 365.786 442.432 367.17 441.913C370.976 440.548 407.556 435.979 406.633 424.648C405.743 413.44 390.836 414.138 388.645 414.292C391.016 413.773 410.869 409.121 404.403 399.207C399.834 392.176 380.173 393.208 378.192 393.285C380.198 392.625 398.437 386.678 392.163 376.559C387.671 369.317 365.721 370.259 363.19 370.689C365.241 369.907 381.499 367.183 373.912 358.461C368.644 352.386 327.315 358.564 308.942 367.734C281.623 381.372 258.296 408.39 258.296 408.39Z" fill="white"/>
<path d="M337.563 434.531C337.966 434.672 338.332 434.813 338.697 434.947C345.041 430.019 369.048 417.305 387.908 414.889C389.074 414.741 389.151 414.068 387.914 414.126C364.626 415.183 343.689 428.898 337.563 434.531Z" fill="#1A2E35"/>
<path d="M377.295 394.035C351.264 399.2 339.498 404.949 317.113 419.169C316.799 419.368 316.446 418.906 316.748 418.676C337.614 403.058 350.597 395.323 377.071 393.375C378.269 393.285 378.487 393.798 377.295 394.035Z" fill="#1A2E35"/>
<path d="M362.389 371.227C337.415 377.866 324.252 383.621 304.136 399.899C303.662 400.283 303.078 399.7 303.514 399.271C322.471 380.885 338.851 373.598 362.152 370.535C363.741 370.33 363.959 370.811 362.389 371.227Z" fill="#1A2E35"/>
<path d="M237.34 271.075C252.131 276.394 280.86 256.124 293.299 238.475C294.145 237.257 293.709 223.434 293.978 206.605C294.177 196.396 294.645 185.028 295.818 174.691L229.182 183.086C229.182 183.086 233.097 205.484 230.944 223.498C230.746 225.004 230.438 226.388 230.015 227.689C229.97 227.881 229.887 228.112 229.842 228.381C227.605 236.289 223.043 265.922 237.34 271.075Z" fill="white" stroke="black" stroke-width="0.640852" stroke-miterlimit="10"/>
<path d="M229.816 228.375C229.688 228.804 229.56 229.272 229.477 229.83C269.37 228.138 284.545 210.598 294.363 193.769C294.664 187.354 295.087 180.849 295.818 174.691L229.175 183.073C229.175 183.073 233.11 205.49 230.931 223.498C230.758 224.998 230.419 226.363 229.989 227.689C229.944 227.856 229.906 228.118 229.816 228.375Z" fill="black" stroke="black" stroke-width="0.640852" stroke-miterlimit="10"/>
<path d="M323.131 104.793C326.745 128.716 304.911 193.077 286.455 205.426C259.699 223.325 220.748 219.678 206.765 188.623C193.211 158.522 223.151 75.1536 243.313 64.4322C273.01 48.6352 317.792 69.45 323.131 104.793Z" fill="white" stroke="black" stroke-width="1.2817" stroke-miterlimit="10"/>
<path d="M261.513 133.74C261.602 133.587 261.782 134.061 261.718 134.234C260.135 138.528 259.039 143.718 262.487 146.468C262.596 146.551 262.506 146.769 262.371 146.698C257.802 144.43 259.321 137.554 261.513 133.74Z" fill="black"/>
<path d="M266.909 130.504C274.067 132.305 269.94 146.493 263.307 144.827C256.777 143.18 260.904 128.992 266.909 130.504Z" fill="black"/>
<path d="M234.776 125.691C234.789 125.512 234.373 125.8 234.328 125.98C233.187 130.414 231.136 135.304 226.734 135.605C226.599 135.612 226.541 135.843 226.695 135.862C231.751 136.592 234.411 130.075 234.776 125.691Z" fill="black"/>
<path d="M232.187 119.956C225.273 117.36 220.594 131.382 227.003 133.779C233.302 136.15 237.981 122.128 232.187 119.956Z" fill="black"/>
<path d="M274.394 125.64C272.606 124.589 271.125 123.327 269.459 122.103C267.581 120.725 265.947 119.821 265.121 117.54C264.678 116.316 265.511 114.592 266.659 114.047C269.337 112.785 272.055 113.9 274.381 115.463C276.906 117.162 278.418 119.116 279.303 122.026C280.161 124.845 276.758 127.024 274.394 125.64Z" fill="black"/>
<path d="M228.778 111.214C230.842 111.464 232.783 111.355 234.841 111.394C237.167 111.439 239.019 111.714 241.063 110.394C242.159 109.689 242.537 107.812 241.954 106.684C240.595 104.056 237.756 103.294 234.956 103.127C231.918 102.947 229.528 103.582 227.067 105.363C224.677 107.087 226.061 110.881 228.778 111.214Z" fill="black"/>
<path d="M251.343 174.486C249.99 175.21 248.529 176.319 246.895 175.992C245.331 175.678 243.736 174.467 242.492 173.512C242.371 173.416 242.185 173.524 242.236 173.685C242.883 175.703 244.979 177.459 247.119 177.696C249.208 177.927 250.695 176.492 251.708 174.813C251.849 174.575 251.541 174.383 251.343 174.486Z" fill="black"/>
<path d="M250.554 159.983C246.985 163.085 242.761 164.117 238.628 163.732C236.782 163.572 234.924 163.098 233.174 162.412C232.822 162.303 232.482 162.162 232.181 161.996C231.873 161.861 231.591 161.739 231.258 161.566C230.765 161.342 230.604 160.836 230.662 160.323L230.675 160.291C230.726 160.131 230.765 160.003 230.848 159.855C230.848 159.855 230.848 159.855 230.854 159.823L230.976 159.439C231.867 156.029 233.693 150.979 233.693 150.979C232.277 151.236 225.144 152.242 225.76 150.499C230.893 136.118 236.596 120.122 244.742 106.895C244.985 106.447 245.69 106.774 245.511 107.241C241.127 121.257 234.302 134.407 229.675 148.422C231.912 148.243 235.603 147.782 237.365 148.333C237.808 148.608 233.661 158.029 233.386 159.592C233.386 159.592 233.367 159.657 233.367 159.766C238.839 162.149 243.627 161.675 250.259 159.464C250.657 159.311 250.919 159.708 250.554 159.983Z" fill="black"/>
<path opacity="0.2" d="M316.107 150.133C312.332 147.044 307.564 131.215 305.347 124.679C303.046 117.886 309.871 90.3483 312.102 82.1582C317.735 88.5155 321.702 96.289 323.099 105.043C324.701 115.008 321.599 132.67 316.107 150.133Z" fill="black"/>
<path d="M253.105 90.0726C256.303 96.9682 262.782 101.903 270.382 102.813C277.784 103.697 286.211 100.833 290.723 94.6996C290.857 94.5201 291.139 94.7252 291.005 94.911C286.179 101.461 278.508 105.793 270.19 104.594C262.384 103.466 255.309 97.6924 252.605 90.2969C252.49 89.9637 252.957 89.7522 253.105 90.0726Z" fill="#1A2E35"/>
<path d="M290.05 44.0917C302.245 47.892 311.557 57.9213 313.64 67.5725C314.908 73.4363 313.832 78.7105 311.499 83.722C311.403 83.9271 310.98 83.754 311.057 83.5425C314.152 75.4358 312.768 64.7912 305.533 56.4281C298.58 48.3982 287.724 43.406 276.823 44.3096C271.132 44.7774 266.037 46.841 262.762 50.199C262.397 50.5771 261.558 50.0196 261.884 49.6223C267.428 42.919 279.014 40.6568 290.05 44.0917Z" fill="#1A2E35"/>
<path d="M211.129 50.2119C214.801 44.7262 220.511 40.7594 226.843 38.9778C235.712 36.4785 244.03 39.6187 252.227 42.8998C252.451 42.9895 252.31 43.3356 252.092 43.2459C245.1 40.471 237.852 38.0678 230.265 39.5482C224.081 40.7594 218.242 44.0598 214.237 48.9559C205.919 59.1198 206.496 74.8527 215.724 84.2476C220.947 89.5666 228.445 92.5786 235.891 92.3351C236.186 92.3287 236.27 92.7773 235.968 92.7965C222.248 93.604 209.219 83.7092 207.034 69.995C205.951 63.2276 207.29 55.9347 211.129 50.2119Z" fill="#1A2E35"/>
<path d="M323.278 118.488C323.278 118.488 341.164 99.8137 335.006 84.3308C331.519 75.5575 312.909 71.3215 312.909 71.3215C312.909 71.3215 309.98 59.1068 295.766 51.3333C281.405 43.4829 260.622 47.2895 260.622 47.2895C260.622 47.2895 248.401 34.825 232.54 38.7726C210.424 44.2775 204.611 73.9554 221.145 88.695C232.758 99.0447 254.393 92.2901 254.393 92.2901C256.085 93.0271 271.016 108.959 289.153 96.7376C289.153 96.7376 297.439 109.689 309.307 105.601C309.301 105.607 311.512 117.001 323.278 118.488Z" fill="black"/>
<path d="M230.034 226.972L244.21 266.185L293.812 219.377L306.75 235.495C306.75 235.495 257.097 310.974 256.937 307.469L242.358 273.741L218.621 295.914L222.677 238.129L230.034 226.972Z" fill="#EDEFEF"/>
<path d="M219.005 267.236C219.998 257.72 220.729 248.1 222.158 238.641C222.209 238.308 222.741 238.174 222.812 238.577C224.375 247.863 220.396 284.244 220.101 292.992C220.133 292.96 220.171 292.928 220.203 292.896C221.197 291.935 242.165 273.427 242.358 273.735C245.594 279.124 256.296 303.688 257.007 305.912C264.858 293.921 294.875 250.388 304.059 239.116C304.322 238.789 304.828 239.084 304.616 239.468C297.599 252.176 257.847 310.827 257.277 310.635C256.873 310.923 243.556 280.662 242.044 274.984C238.461 279.054 217.204 300.035 217.191 298.612C217.089 289.032 218.018 276.766 219.005 267.236Z" fill="#1C1C1C"/>
<path d="M301.053 156.612C301.053 156.612 319.542 137.797 328.321 144.737C337.101 151.678 320.702 180.702 308.634 183.022C296.567 185.342 294.203 174.217 294.203 174.217L301.053 156.612Z" fill="white" stroke="black" stroke-width="1.2817" stroke-miterlimit="10"/>
<path d="M323.412 152.934C323.598 152.946 323.592 153.209 323.419 153.248C314.915 155.138 309.48 161.816 305.257 168.981C308.122 166.43 311.614 165.36 315.094 168.84C315.274 169.025 315.024 169.314 314.806 169.23C311.659 167.987 309.211 168.154 306.571 170.397C304.7 171.986 303.238 174.146 301.764 176.094C301.271 176.741 300.047 176.145 300.457 175.37C300.489 175.312 300.521 175.254 300.553 175.197C302.066 165.014 312.339 152.126 323.412 152.934Z" fill="#1A2E35"/>
</svg>
