<svg width="248" height="46" viewBox="0 0 248 46" fill="none" xmlns="http://www.w3.org/2000/svg">
<mask id="path-1-outside-1_181_1063" maskUnits="userSpaceOnUse" x="-3" y="-3" width="254" height="52" fill="black">
<rect fill="white" x="-3" y="-3" width="254" height="52"/>
<path d="M8.52 36.192V27.84H14.28C15.784 27.84 17.128 27.632 18.312 27.216C19.528 26.768 20.552 26.144 21.384 25.344C22.216 24.512 22.856 23.52 23.304 22.368C23.752 21.184 23.976 19.856 23.976 18.384C23.976 16.848 23.752 15.504 23.304 14.352C22.856 13.168 22.216 12.192 21.384 11.424C20.552 10.624 19.528 10.032 18.312 9.648C17.128 9.232 15.784 9.024 14.28 9.024H8.52V0.671997H13.896C17.064 0.671997 19.832 1.12 22.2 2.016C24.6 2.912 26.6 4.16 28.2 5.76C29.8 7.328 31 9.152 31.8 11.232C32.6 13.312 33 15.52 33 17.856V18.912C33 21.056 32.6 23.168 31.8 25.248C31 27.296 29.8 29.152 28.2 30.816C26.6 32.448 24.6 33.76 22.2 34.752C19.832 35.712 17.064 36.192 13.896 36.192H8.52ZM0.552 36.192V0.671997H9.48V36.192H0.552ZM48.9994 36.96C46.7594 36.96 44.7754 36.576 43.0474 35.808C41.3194 35.04 39.8634 34 38.6794 32.688C37.4954 31.376 36.5834 29.904 35.9434 28.272C35.3354 26.64 35.0314 24.96 35.0314 23.232V22.272C35.0314 20.48 35.3354 18.768 35.9434 17.136C36.5834 15.472 37.4794 14 38.6314 12.72C39.8154 11.44 41.2554 10.432 42.9514 9.696C44.6474 8.928 46.5674 8.544 48.7114 8.544C51.5594 8.544 53.9754 9.184 55.9594 10.464C57.9434 11.744 59.4634 13.44 60.5194 15.552C61.5754 17.632 62.1034 19.904 62.1034 22.368V25.152H38.6794V20.448H57.0634L54.0394 22.56C54.0394 21.056 53.8314 19.792 53.4154 18.768C53.0314 17.712 52.4394 16.912 51.6394 16.368C50.8714 15.824 49.8954 15.552 48.7114 15.552C47.5594 15.552 46.5514 15.824 45.6874 16.368C44.8554 16.88 44.2154 17.68 43.7674 18.768C43.3194 19.824 43.0954 21.168 43.0954 22.8C43.0954 24.272 43.3034 25.552 43.7194 26.64C44.1354 27.696 44.7754 28.512 45.6394 29.088C46.5034 29.664 47.6234 29.952 48.9994 29.952C50.2154 29.952 51.2074 29.744 51.9754 29.328C52.7754 28.912 53.3354 28.352 53.6554 27.648H61.6234C61.2394 29.44 60.4714 31.04 59.3194 32.448C58.1994 33.856 56.7594 34.96 54.9994 35.76C53.2714 36.56 51.2714 36.96 48.9994 36.96ZM70.4588 36L62.8748 9.504H71.8028L78.8588 36H70.4588ZM73.2428 36V28.704H81.7388V36H73.2428ZM76.3148 36L82.3148 9.504H90.6668L84.1388 36H76.3148ZM105.533 36.96C103.293 36.96 101.309 36.576 99.5805 35.808C97.8525 35.04 96.3965 34 95.2125 32.688C94.0285 31.376 93.1165 29.904 92.4765 28.272C91.8685 26.64 91.5645 24.96 91.5645 23.232V22.272C91.5645 20.48 91.8685 18.768 92.4765 17.136C93.1165 15.472 94.0125 14 95.1645 12.72C96.3485 11.44 97.7885 10.432 99.4845 9.696C101.181 8.928 103.101 8.544 105.245 8.544C108.093 8.544 110.509 9.184 112.493 10.464C114.477 11.744 115.997 13.44 117.053 15.552C118.109 17.632 118.637 19.904 118.637 22.368V25.152H95.2125V20.448H113.597L110.573 22.56C110.573 21.056 110.365 19.792 109.949 18.768C109.565 17.712 108.973 16.912 108.173 16.368C107.405 15.824 106.429 15.552 105.245 15.552C104.093 15.552 103.085 15.824 102.221 16.368C101.389 16.88 100.749 17.68 100.301 18.768C99.8525 19.824 99.6285 21.168 99.6285 22.8C99.6285 24.272 99.8365 25.552 100.253 26.64C100.669 27.696 101.309 28.512 102.173 29.088C103.037 29.664 104.157 29.952 105.533 29.952C106.749 29.952 107.741 29.744 108.509 29.328C109.309 28.912 109.869 28.352 110.189 27.648H118.157C117.773 29.44 117.005 31.04 115.853 32.448C114.733 33.856 113.293 34.96 111.533 35.76C109.805 36.56 107.805 36.96 105.533 36.96ZM122.665 36V0.959999H131.401V36H122.665ZM119.689 7.296V0.959999H131.401V7.296H119.689ZM150.084 36.96C147.748 36.96 145.668 36.608 143.844 35.904C142.02 35.2 140.468 34.224 139.188 32.976C137.94 31.728 136.98 30.288 136.308 28.656C135.668 27.024 135.348 25.28 135.348 23.424V22.272C135.348 20.352 135.684 18.56 136.356 16.896C137.06 15.232 138.052 13.776 139.332 12.528C140.612 11.28 142.164 10.304 143.988 9.6C145.812 8.896 147.844 8.544 150.084 8.544C152.356 8.544 154.388 8.896 156.18 9.6C158.004 10.304 159.556 11.28 160.836 12.528C162.116 13.776 163.092 15.232 163.764 16.896C164.468 18.56 164.82 20.352 164.82 22.272V23.424C164.82 25.28 164.484 27.024 163.812 28.656C163.172 30.288 162.212 31.728 160.932 32.976C159.684 34.224 158.148 35.2 156.324 35.904C154.5 36.608 152.42 36.96 150.084 36.96ZM150.084 29.664C151.428 29.664 152.532 29.376 153.396 28.8C154.292 28.224 154.964 27.424 155.412 26.4C155.86 25.344 156.084 24.16 156.084 22.848C156.084 21.472 155.844 20.272 155.364 19.248C154.916 18.192 154.244 17.36 153.348 16.752C152.452 16.144 151.364 15.84 150.084 15.84C148.804 15.84 147.716 16.144 146.82 16.752C145.924 17.36 145.236 18.192 144.756 19.248C144.308 20.272 144.084 21.472 144.084 22.848C144.084 24.16 144.308 25.344 144.756 26.4C145.204 27.424 145.876 28.224 146.772 28.8C147.668 29.376 148.772 29.664 150.084 29.664ZM168.642 45.6V9.504H175.554V20.928H174.786C174.882 18.336 175.394 16.128 176.322 14.304C177.282 12.48 178.578 11.104 180.21 10.176C181.842 9.216 183.714 8.736 185.826 8.736C187.65 8.736 189.298 9.072 190.77 9.744C192.242 10.384 193.506 11.312 194.562 12.528C195.618 13.712 196.418 15.12 196.962 16.752C197.538 18.384 197.826 20.176 197.826 22.128V23.28C197.826 25.232 197.57 27.04 197.058 28.704C196.546 30.336 195.778 31.776 194.754 33.024C193.73 34.24 192.466 35.184 190.962 35.856C189.49 36.528 187.794 36.864 185.874 36.864C183.826 36.864 182.018 36.464 180.45 35.664C178.882 34.832 177.634 33.6 176.706 31.968C175.81 30.304 175.33 28.224 175.266 25.728L177.378 28.32V45.6H168.642ZM183.234 29.664C184.386 29.664 185.394 29.376 186.258 28.8C187.154 28.192 187.842 27.36 188.322 26.304C188.834 25.248 189.09 24.048 189.09 22.704C189.09 21.328 188.834 20.144 188.322 19.152C187.842 18.128 187.17 17.344 186.306 16.8C185.442 16.224 184.418 15.936 183.234 15.936C182.178 15.936 181.186 16.176 180.258 16.656C179.362 17.136 178.626 17.84 178.05 18.768C177.474 19.696 177.186 20.816 177.186 22.128V23.76C177.186 25.008 177.49 26.08 178.098 26.976C178.706 27.84 179.474 28.512 180.402 28.992C181.33 29.44 182.274 29.664 183.234 29.664ZM214.099 36.96C211.859 36.96 209.875 36.576 208.147 35.808C206.419 35.04 204.963 34 203.779 32.688C202.595 31.376 201.683 29.904 201.043 28.272C200.435 26.64 200.131 24.96 200.131 23.232V22.272C200.131 20.48 200.435 18.768 201.043 17.136C201.683 15.472 202.579 14 203.731 12.72C204.915 11.44 206.355 10.432 208.051 9.696C209.747 8.928 211.667 8.544 213.811 8.544C216.659 8.544 219.075 9.184 221.059 10.464C223.043 11.744 224.563 13.44 225.619 15.552C226.675 17.632 227.203 19.904 227.203 22.368V25.152H203.779V20.448H222.163L219.139 22.56C219.139 21.056 218.931 19.792 218.515 18.768C218.131 17.712 217.539 16.912 216.739 16.368C215.971 15.824 214.995 15.552 213.811 15.552C212.659 15.552 211.651 15.824 210.787 16.368C209.955 16.88 209.315 17.68 208.867 18.768C208.419 19.824 208.195 21.168 208.195 22.8C208.195 24.272 208.403 25.552 208.819 26.64C209.235 27.696 209.875 28.512 210.739 29.088C211.603 29.664 212.723 29.952 214.099 29.952C215.315 29.952 216.307 29.744 217.075 29.328C217.875 28.912 218.435 28.352 218.755 27.648H226.723C226.339 29.44 225.571 31.04 224.419 32.448C223.299 33.856 221.859 34.96 220.099 35.76C218.371 36.56 216.371 36.96 214.099 36.96ZM230.847 36V9.504H237.759V21.024H237.663C237.663 17.312 238.431 14.4 239.967 12.288C241.535 10.176 243.775 9.12 246.687 9.12H247.743V16.608H245.727C243.775 16.608 242.255 17.136 241.167 18.192C240.111 19.248 239.583 20.768 239.583 22.752V36H230.847Z"/>
</mask>
<path d="M8.52 36.192H5.52V39.192H8.52V36.192ZM8.52 27.84V24.84H5.52V27.84H8.52ZM18.312 27.216L19.3065 30.0464L19.3278 30.0389L19.3491 30.031L18.312 27.216ZM21.384 25.344L23.4633 27.5065L23.4845 27.4861L23.5053 27.4653L21.384 25.344ZM23.304 22.368L26.1 23.4553L26.105 23.4425L26.1099 23.4297L23.304 22.368ZM23.304 14.352L20.4981 15.4137L20.503 15.4265L20.508 15.4393L23.304 14.352ZM21.384 11.424L19.3047 13.5865L19.3267 13.6077L19.3492 13.6284L21.384 11.424ZM18.312 9.648L17.3175 12.4784L17.3628 12.4943L17.4086 12.5087L18.312 9.648ZM8.52 9.024H5.52V12.024H8.52V9.024ZM8.52 0.671997V-2.328H5.52V0.671997H8.52ZM22.2 2.016L21.1383 4.82189L21.1507 4.82652L22.2 2.016ZM28.2 5.76L26.0787 7.88132L26.0894 7.89203L26.1002 7.90264L28.2 5.76ZM31.8 11.232L29 12.3089L29 12.3089L31.8 11.232ZM31.8 25.248L34.5944 26.3396L34.5972 26.3323L34.6 26.3249L31.8 25.248ZM28.2 30.816L30.3422 32.9162L30.3524 32.9058L30.3625 32.8953L28.2 30.816ZM22.2 34.752L23.3271 37.5322L23.3366 37.5284L23.346 37.5245L22.2 34.752ZM0.552 36.192H-2.448V39.192H0.552V36.192ZM0.552 0.671997V-2.328H-2.448V0.671997H0.552ZM9.48 0.671997H12.48V-2.328H9.48V0.671997ZM9.48 36.192V39.192H12.48V36.192H9.48ZM11.52 36.192V27.84H5.52V36.192H11.52ZM8.52 30.84H14.28V24.84H8.52V30.84ZM14.28 30.84C16.0574 30.84 17.7466 30.5944 19.3065 30.0464L17.3175 24.3856C16.5094 24.6696 15.5106 24.84 14.28 24.84V30.84ZM19.3491 30.031C20.9061 29.4574 22.2981 28.6269 23.4633 27.5065L19.3047 23.1815C18.8059 23.6611 18.1499 24.0786 17.2749 24.401L19.3491 30.031ZM23.5053 27.4653C24.6463 26.3244 25.509 24.9751 26.1 23.4553L20.508 21.2807C20.203 22.0649 19.7857 22.6996 19.2627 23.2227L23.5053 27.4653ZM26.1099 23.4297C26.7053 21.8561 26.976 20.1607 26.976 18.384H20.976C20.976 19.5513 20.7987 20.5119 20.4981 21.3063L26.1099 23.4297ZM26.976 18.384C26.976 16.5631 26.7111 14.8361 26.1 13.2647L20.508 15.4393C20.7929 16.1719 20.976 17.1329 20.976 18.384H26.976ZM26.1099 13.2903C25.5167 11.7227 24.6317 10.3391 23.4188 9.21959L19.3492 13.6284C19.8003 14.0449 20.1953 14.6133 20.4981 15.4137L26.1099 13.2903ZM23.4633 9.2615C22.2647 8.10896 20.8251 7.29558 19.2154 6.78725L17.4086 12.5087C18.2309 12.7684 18.8393 13.139 19.3047 13.5865L23.4633 9.2615ZM19.3065 6.81762C17.7466 6.26958 16.0574 6.024 14.28 6.024V12.024C15.5106 12.024 16.5094 12.1944 17.3175 12.4784L19.3065 6.81762ZM14.28 6.024H8.52V12.024H14.28V6.024ZM11.52 9.024V0.671997H5.52V9.024H11.52ZM8.52 3.672H13.896V-2.328H8.52V3.672ZM13.896 3.672C16.7889 3.672 19.1828 4.08194 21.1383 4.82186L23.2617 -0.789858C20.4812 -1.84195 17.3391 -2.328 13.896 -2.328V3.672ZM21.1507 4.82652C23.2014 5.59211 24.8203 6.62298 26.0787 7.88132L30.3213 3.63868C28.3797 1.69702 25.9986 0.231888 23.2493 -0.794525L21.1507 4.82652ZM26.1002 7.90264C27.3948 9.17132 28.3552 10.6324 29 12.3089L34.6 10.1551C33.6449 7.67158 32.2052 5.48468 30.2998 3.61736L26.1002 7.90264ZM29 12.3089C29.6615 14.0289 30 15.8702 30 17.856H36C36 15.1698 35.5385 12.5951 34.6 10.1551L29 12.3089ZM30 17.856V18.912H36V17.856H30ZM30 18.912C30 20.6733 29.6731 22.421 29 24.1711L34.6 26.3249C35.5269 23.915 36 21.4387 36 18.912H30ZM29.0056 24.1564C28.3563 25.8186 27.3778 27.3427 26.0375 28.7367L30.3625 32.8953C32.2222 30.9613 33.6437 28.7734 34.5944 26.3396L29.0056 24.1564ZM26.0578 28.7158C24.7772 30.022 23.1308 31.1211 21.054 31.9795L23.346 37.5245C26.0692 36.3989 28.4228 34.874 30.3422 32.9162L26.0578 28.7158ZM21.0729 31.9718C19.1376 32.7564 16.7673 33.192 13.896 33.192V39.192C17.3607 39.192 20.5265 38.6676 23.3271 37.5322L21.0729 31.9718ZM13.896 33.192H8.52V39.192H13.896V33.192ZM3.552 36.192V0.671997H-2.448V36.192H3.552ZM0.552 3.672H9.48V-2.328H0.552V3.672ZM6.48 0.671997V36.192H12.48V0.671997H6.48ZM9.48 33.192H0.552V39.192H9.48V33.192ZM43.0474 35.808L41.829 38.5494L43.0474 35.808ZM38.6794 32.688L40.9066 30.6781V30.6781L38.6794 32.688ZM35.9434 28.272L33.1321 29.3193L33.1411 29.3434L33.1505 29.3673L35.9434 28.272ZM35.9434 17.136L33.1433 16.0591L33.1377 16.0738L33.1321 16.0887L35.9434 17.136ZM38.6314 12.72L36.4291 10.6829L36.4152 10.6979L36.4015 10.7131L38.6314 12.72ZM42.9514 9.696L44.1457 12.448L44.1674 12.4386L44.1889 12.4289L42.9514 9.696ZM55.9594 10.464L54.333 12.9849L55.9594 10.464ZM60.5194 15.552L57.8361 16.8936L57.8402 16.9019L57.8444 16.9101L60.5194 15.552ZM62.1034 25.152V28.152H65.1034V25.152H62.1034ZM38.6794 25.152H35.6794V28.152H38.6794V25.152ZM38.6794 20.448V17.448H35.6794V20.448H38.6794ZM57.0634 20.448L58.7811 22.9075L66.5982 17.448H57.0634V20.448ZM54.0394 22.56H51.0394V28.3145L55.7571 25.0195L54.0394 22.56ZM53.4154 18.768L50.596 19.7932L50.615 19.8455L50.636 19.8971L53.4154 18.768ZM51.6394 16.368L49.9053 18.8161L49.9287 18.8327L49.9524 18.8488L51.6394 16.368ZM45.6874 16.368L47.2597 18.923L47.2728 18.9149L47.2858 18.9067L45.6874 16.368ZM43.7674 18.768L46.5291 19.9396L46.5353 19.925L46.5414 19.9102L43.7674 18.768ZM43.7194 26.64L40.9172 27.7114L40.9226 27.7255L40.9282 27.7396L43.7194 26.64ZM45.6394 29.088L47.3035 26.5919V26.5918L45.6394 29.088ZM51.9754 29.328L50.5913 26.6663L50.5688 26.678L50.5465 26.6901L51.9754 29.328ZM53.6554 27.648V24.648H51.7236L50.9243 26.4066L53.6554 27.648ZM61.6234 27.648L64.5568 28.2766L65.3343 24.648H61.6234V27.648ZM59.3194 32.448L56.9975 30.5483L56.9844 30.5643L56.9716 30.5804L59.3194 32.448ZM54.9994 35.76L53.758 33.0289L53.7485 33.0332L53.739 33.0376L54.9994 35.76ZM48.9994 33.96C47.1027 33.96 45.5461 33.6356 44.2658 33.0666L41.829 38.5494C44.0047 39.5164 46.416 39.96 48.9994 39.96V33.96ZM44.2658 33.0666C42.8943 32.457 41.7899 31.6569 40.9066 30.6781L36.4522 34.6979C37.9369 36.3431 39.7445 37.623 41.829 38.5494L44.2658 33.0666ZM40.9066 30.6781C39.9627 29.6322 39.2433 28.4695 38.7363 27.1767L33.1505 29.3673C33.9235 31.3385 35.0281 33.1198 36.4522 34.6979L40.9066 30.6781ZM38.7546 27.2247C38.2705 25.9251 38.0314 24.5996 38.0314 23.232H32.0314C32.0314 25.3204 32.4003 27.3549 33.1321 29.3193L38.7546 27.2247ZM38.0314 23.232V22.272H32.0314V23.232H38.0314ZM38.0314 22.272C38.0314 20.827 38.2751 19.4705 38.7546 18.1833L33.1321 16.0887C32.3957 18.0655 32.0314 20.133 32.0314 22.272H38.0314ZM38.7434 18.2129C39.2565 16.8789 39.9632 15.7247 40.8613 14.7269L36.4015 10.7131C34.9956 12.2753 33.9102 14.0651 33.1433 16.0591L38.7434 18.2129ZM40.8337 14.7571C41.7181 13.801 42.8082 13.0284 44.1457 12.448L41.7571 6.94396C39.7026 7.83555 37.9127 9.07898 36.4291 10.6829L40.8337 14.7571ZM44.1889 12.4289C45.4414 11.8617 46.9298 11.544 48.7114 11.544V5.544C46.205 5.544 43.8534 5.99431 41.7139 6.96314L44.1889 12.4289ZM48.7114 11.544C51.1026 11.544 52.9257 12.077 54.333 12.9849L57.5858 7.94311C55.025 6.29103 52.0161 5.544 48.7114 5.544V11.544ZM54.333 12.9849C55.8654 13.9735 57.0204 15.2622 57.8361 16.8936L63.2027 14.2104C61.9064 11.6178 60.0214 9.51447 57.5858 7.94311L54.333 12.9849ZM57.8444 16.9101C58.6747 18.5456 59.1034 20.3486 59.1034 22.368H65.1034C65.1034 19.4594 64.4761 16.7184 63.1944 14.1939L57.8444 16.9101ZM59.1034 22.368V25.152H65.1034V22.368H59.1034ZM62.1034 22.152H38.6794V28.152H62.1034V22.152ZM41.6794 25.152V20.448H35.6794V25.152H41.6794ZM38.6794 23.448H57.0634V17.448H38.6794V23.448ZM55.3456 17.9885L52.3216 20.1005L55.7571 25.0195L58.7811 22.9075L55.3456 17.9885ZM57.0394 22.56C57.0394 20.7998 56.7987 19.1256 56.1948 17.6389L50.636 19.8971C50.864 20.4584 51.0394 21.3122 51.0394 22.56H57.0394ZM56.2348 17.7428C55.6714 16.1936 54.728 14.8404 53.3263 13.8872L49.9524 18.8488C50.1508 18.9836 50.3913 19.2304 50.596 19.7932L56.2348 17.7428ZM53.3734 13.9199C51.9811 12.9337 50.3553 12.552 48.7114 12.552V18.552C49.4355 18.552 49.7617 18.7143 49.9053 18.8161L53.3734 13.9199ZM48.7114 12.552C47.0683 12.552 45.491 12.9465 44.0889 13.8293L47.2858 18.9067C47.6117 18.7015 48.0504 18.552 48.7114 18.552V12.552ZM44.1151 13.813C42.6404 14.7205 41.6322 16.0743 40.9933 17.6257L46.5414 19.9102C46.7986 19.2857 47.0703 19.0395 47.2597 18.923L44.1151 13.813ZM41.0056 17.5963C40.3488 19.1446 40.0954 20.9228 40.0954 22.8H46.0954C46.0954 21.4132 46.2899 20.5034 46.5291 19.9396L41.0056 17.5963ZM40.0954 22.8C40.0954 24.5456 40.341 26.2044 40.9172 27.7114L46.5215 25.5686C46.2657 24.8996 46.0954 23.9984 46.0954 22.8H40.0954ZM40.9282 27.7396C41.5467 29.3097 42.5544 30.6369 43.9753 31.5842L47.3035 26.5918C46.9964 26.3871 46.7241 26.0823 46.5106 25.5404L40.9282 27.7396ZM43.9753 31.5841C45.4689 32.5799 47.2202 32.952 48.9994 32.952V26.952C48.0265 26.952 47.5379 26.7481 47.3035 26.5919L43.9753 31.5841ZM48.9994 32.952C50.529 32.952 52.0592 32.6944 53.4042 31.9659L50.5465 26.6901C50.3556 26.7936 49.9017 26.952 48.9994 26.952V32.952ZM53.3594 31.9897C54.6515 31.3178 55.7444 30.3021 56.3865 28.8894L50.9243 26.4066C50.9167 26.4232 50.9059 26.4428 50.8741 26.4747C50.8384 26.5103 50.7564 26.5805 50.5913 26.6663L53.3594 31.9897ZM53.6554 30.648H61.6234V24.648H53.6554V30.648ZM58.69 27.0194C58.4051 28.3487 57.8452 29.5122 56.9975 30.5483L61.6413 34.3477C63.0975 32.5678 64.0736 30.5313 64.5568 28.2766L58.69 27.0194ZM56.9716 30.5804C56.1687 31.5898 55.119 32.4102 53.758 33.0289L56.2408 38.4911C58.3997 37.5098 60.2301 36.1222 61.6672 34.3156L56.9716 30.5804ZM53.739 33.0376C52.4749 33.6228 50.919 33.96 48.9994 33.96V39.96C51.6237 39.96 54.0678 39.4972 56.2597 38.4824L53.739 33.0376ZM70.4588 36L67.5746 36.8255L68.197 39H70.4588V36ZM62.8747 9.504V6.504H58.8956L59.9906 10.3295L62.8747 9.504ZM71.8027 9.504L74.7017 8.73199L74.1084 6.504H71.8027V9.504ZM78.8587 36V39H82.7622L81.7577 35.228L78.8587 36ZM73.2428 36H70.2428V39H73.2428V36ZM73.2428 28.704V25.704H70.2428V28.704H73.2428ZM81.7388 28.704H84.7388V25.704H81.7388V28.704ZM81.7388 36V39H84.7388V36H81.7388ZM76.3148 36L73.3888 35.3374L72.5594 39H76.3148V36ZM82.3148 9.504V6.504H79.9181L79.3888 8.84142L82.3148 9.504ZM90.6668 9.504L93.5796 10.2217L94.4956 6.504H90.6668V9.504ZM84.1388 36V39H86.4893L87.0516 36.7177L84.1388 36ZM73.3429 35.1745L65.7589 8.67845L59.9906 10.3295L67.5746 36.8255L73.3429 35.1745ZM62.8747 12.504H71.8027V6.504H62.8747V12.504ZM68.9038 10.276L75.9598 36.772L81.7577 35.228L74.7017 8.73199L68.9038 10.276ZM78.8587 33H70.4588V39H78.8587V33ZM76.2428 36V28.704H70.2428V36H76.2428ZM73.2428 31.704H81.7388V25.704H73.2428V31.704ZM78.7388 28.704V36H84.7388V28.704H78.7388ZM81.7388 33H73.2428V39H81.7388V33ZM79.2407 36.6626L85.2407 10.1666L79.3888 8.84142L73.3888 35.3374L79.2407 36.6626ZM82.3148 12.504H90.6668V6.504H82.3148V12.504ZM87.7539 8.78633L81.2259 35.2823L87.0516 36.7177L93.5796 10.2217L87.7539 8.78633ZM84.1388 33H76.3148V39H84.1388V33ZM99.5805 35.808L98.3621 38.5494L99.5805 35.808ZM95.2125 32.688L97.4397 30.6781V30.6781L95.2125 32.688ZM92.4765 28.272L89.6653 29.3193L89.6742 29.3434L89.6836 29.3673L92.4765 28.272ZM92.4765 17.136L89.6765 16.0591L89.6708 16.0738L89.6653 16.0887L92.4765 17.136ZM95.1645 12.72L92.9622 10.6829L92.9483 10.6979L92.9346 10.7131L95.1645 12.72ZM99.4845 9.696L100.679 12.448L100.7 12.4386L100.722 12.4289L99.4845 9.696ZM112.493 10.464L110.866 12.9849H110.866L112.493 10.464ZM117.053 15.552L114.369 16.8936L114.373 16.9019L114.378 16.9101L117.053 15.552ZM118.637 25.152V28.152H121.637V25.152H118.637ZM95.2125 25.152H92.2125V28.152H95.2125V25.152ZM95.2125 20.448V17.448H92.2125V20.448H95.2125ZM113.597 20.448L115.314 22.9075L123.131 17.448H113.597V20.448ZM110.573 22.56H107.573V28.3145L112.29 25.0195L110.573 22.56ZM109.949 18.768L107.129 19.7932L107.148 19.8455L107.169 19.8971L109.949 18.768ZM108.173 16.368L106.438 18.8161L106.462 18.8327L106.486 18.8488L108.173 16.368ZM102.221 16.368L103.793 18.923L103.806 18.9149L103.819 18.9067L102.221 16.368ZM100.301 18.768L103.062 19.9396L103.068 19.925L103.075 19.9102L100.301 18.768ZM100.253 26.64L97.4503 27.7114L97.4557 27.7255L97.4613 27.7396L100.253 26.64ZM102.173 29.088L103.837 26.5919L103.837 26.5918L102.173 29.088ZM108.509 29.328L107.124 26.6663L107.102 26.678L107.08 26.6901L108.509 29.328ZM110.189 27.648V24.648H108.257L107.457 26.4066L110.189 27.648ZM118.157 27.648L121.09 28.2766L121.867 24.648H118.157V27.648ZM115.853 32.448L113.531 30.5483L113.518 30.5643L113.505 30.5804L115.853 32.448ZM111.533 35.76L110.291 33.0289L110.282 33.0332L110.272 33.0376L111.533 35.76ZM105.533 33.96C103.636 33.96 102.079 33.6356 100.799 33.0666L98.3621 38.5494C100.538 39.5164 102.949 39.96 105.533 39.96V33.96ZM100.799 33.0666C99.4274 32.457 98.323 31.6569 97.4397 30.6781L92.9853 34.6979C94.47 36.3431 96.2776 37.623 98.3621 38.5494L100.799 33.0666ZM97.4397 30.6781C96.4958 29.6322 95.7764 28.4695 95.2694 27.1767L89.6836 29.3673C90.4566 31.3385 91.5612 33.1198 92.9853 34.6979L97.4397 30.6781ZM95.2878 27.2247C94.8036 25.9251 94.5645 24.5996 94.5645 23.232H88.5645C88.5645 25.3204 88.9334 27.3549 89.6653 29.3193L95.2878 27.2247ZM94.5645 23.232V22.272H88.5645V23.232H94.5645ZM94.5645 22.272C94.5645 20.827 94.8082 19.4705 95.2878 18.1833L89.6653 16.0887C88.9288 18.0655 88.5645 20.133 88.5645 22.272H94.5645ZM95.2765 18.2129C95.7896 16.8789 96.4963 15.7247 97.3944 14.7269L92.9346 10.7131C91.5287 12.2753 90.4434 14.0651 89.6765 16.0591L95.2765 18.2129ZM97.3668 14.7571C98.2512 13.801 99.3413 13.0284 100.679 12.448L98.2902 6.94396C96.2357 7.83555 94.4458 9.07898 92.9622 10.6829L97.3668 14.7571ZM100.722 12.4289C101.975 11.8617 103.463 11.544 105.245 11.544V5.544C102.738 5.544 100.386 5.99431 98.247 6.96314L100.722 12.4289ZM105.245 11.544C107.636 11.544 109.459 12.077 110.866 12.9849L114.119 7.94311C111.558 6.29103 108.549 5.544 105.245 5.544V11.544ZM110.866 12.9849C112.399 13.9735 113.554 15.2622 114.369 16.8936L119.736 14.2104C118.439 11.6178 116.554 9.51447 114.119 7.94311L110.866 12.9849ZM114.378 16.9101C115.208 18.5456 115.637 20.3486 115.637 22.368H121.637C121.637 19.4594 121.009 16.7184 119.728 14.1939L114.378 16.9101ZM115.637 22.368V25.152H121.637V22.368H115.637ZM118.637 22.152H95.2125V28.152H118.637V22.152ZM98.2125 25.152V20.448H92.2125V25.152H98.2125ZM95.2125 23.448H113.597V17.448H95.2125V23.448ZM111.879 17.9885L108.855 20.1005L112.29 25.0195L115.314 22.9075L111.879 17.9885ZM113.573 22.56C113.573 20.7998 113.332 19.1256 112.728 17.6389L107.169 19.8971C107.397 20.4584 107.573 21.3122 107.573 22.56H113.573ZM112.768 17.7428C112.205 16.1936 111.261 14.8404 109.859 13.8872L106.486 18.8488C106.684 18.9836 106.924 19.2304 107.129 19.7932L112.768 17.7428ZM109.907 13.9199C108.514 12.9337 106.888 12.552 105.245 12.552V18.552C105.969 18.552 106.295 18.7143 106.438 18.8161L109.907 13.9199ZM105.245 12.552C103.601 12.552 102.024 12.9465 100.622 13.8293L103.819 18.9067C104.145 18.7015 104.584 18.552 105.245 18.552V12.552ZM100.648 13.813C99.1735 14.7205 98.1653 16.0743 97.5265 17.6257L103.075 19.9102C103.332 19.2857 103.603 19.0395 103.793 18.923L100.648 13.813ZM97.5388 17.5963C96.8819 19.1446 96.6285 20.9228 96.6285 22.8H102.629C102.629 21.4132 102.823 20.5034 103.062 19.9396L97.5388 17.5963ZM96.6285 22.8C96.6285 24.5456 96.8741 26.2044 97.4503 27.7114L103.055 25.5686C102.799 24.8996 102.629 23.9984 102.629 22.8H96.6285ZM97.4613 27.7396C98.0798 29.3097 99.0875 30.6369 100.508 31.5842L103.837 26.5918C103.53 26.3871 103.257 26.0823 103.044 25.5404L97.4613 27.7396ZM100.508 31.5841C102.002 32.5799 103.753 32.952 105.533 32.952V26.952C104.56 26.952 104.071 26.7481 103.837 26.5919L100.508 31.5841ZM105.533 32.952C107.062 32.952 108.592 32.6944 109.937 31.9659L107.08 26.6901C106.889 26.7936 106.435 26.952 105.533 26.952V32.952ZM109.893 31.9897C111.185 31.3178 112.277 30.3021 112.92 28.8894L107.457 26.4066C107.45 26.4232 107.439 26.4428 107.407 26.4747C107.372 26.5103 107.29 26.5805 107.124 26.6663L109.893 31.9897ZM110.189 30.648H118.157V24.648H110.189V30.648ZM115.223 27.0194C114.938 28.3487 114.378 29.5122 113.531 30.5483L118.174 34.3477C119.631 32.5678 120.607 30.5313 121.09 28.2766L115.223 27.0194ZM113.505 30.5804C112.702 31.5898 111.652 32.4102 110.291 33.0289L112.774 38.4911C114.933 37.5098 116.763 36.1222 118.2 34.3156L113.505 30.5804ZM110.272 33.0376C109.008 33.6228 107.452 33.96 105.533 33.96V39.96C108.157 39.96 110.601 39.4972 112.793 38.4824L110.272 33.0376ZM122.665 36H119.665V39H122.665V36ZM122.665 0.959999V-2.04H119.665V0.959999H122.665ZM131.401 0.959999H134.401V-2.04H131.401V0.959999ZM131.401 36V39H134.401V36H131.401ZM119.689 7.296H116.689V10.296H119.689V7.296ZM119.689 0.959999V-2.04H116.689V0.959999H119.689ZM131.401 0.959999H134.401V-2.04H131.401V0.959999ZM131.401 7.296V10.296H134.401V7.296H131.401ZM125.665 36V0.959999H119.665V36H125.665ZM122.665 3.96H131.401V-2.04H122.665V3.96ZM128.401 0.959999V36H134.401V0.959999H128.401ZM131.401 33H122.665V39H131.401V33ZM122.689 7.296V0.959999H116.689V7.296H122.689ZM119.689 3.96H131.401V-2.04H119.689V3.96ZM128.401 0.959999V7.296H134.401V0.959999H128.401ZM131.401 4.296H119.689V10.296H131.401V4.296ZM143.844 35.904L144.924 33.1052L143.844 35.904ZM139.188 32.976L137.066 35.0973L137.08 35.1107L137.093 35.124L139.188 32.976ZM136.308 28.656L133.515 29.7513L133.524 29.7748L133.534 29.7982L136.308 28.656ZM136.356 16.896L133.593 15.7271L133.583 15.7498L133.574 15.7726L136.356 16.896ZM139.332 12.528L137.237 10.38V10.38L139.332 12.528ZM156.18 9.6L155.083 12.3923L155.091 12.3955L155.099 12.3988L156.18 9.6ZM160.836 12.528L158.741 14.676V14.676L160.836 12.528ZM163.764 16.896L160.982 18.0194L160.991 18.0422L161.001 18.0649L163.764 16.896ZM163.812 28.656L161.038 27.5138L161.028 27.5372L161.019 27.5607L163.812 28.656ZM160.932 32.976L158.837 30.828L158.824 30.8413L158.81 30.8547L160.932 32.976ZM156.324 35.904L155.243 33.1052L156.324 35.904ZM153.396 28.8L151.773 26.2765L151.752 26.29L151.732 26.3038L153.396 28.8ZM155.412 26.4L158.16 27.6025L158.167 27.5871L158.173 27.5716L155.412 26.4ZM155.364 19.248L152.602 20.4197L152.624 20.4709L152.647 20.5213L155.364 19.248ZM146.82 16.752L145.135 14.2696L146.82 16.752ZM144.756 19.248L142.025 18.0066L142.016 18.026L142.007 18.0455L144.756 19.248ZM144.756 26.4L141.994 27.5716L142 27.5871L142.007 27.6025L144.756 26.4ZM150.084 33.96C148.047 33.96 146.343 33.6531 144.924 33.1052L142.763 38.7028C144.992 39.5629 147.448 39.96 150.084 39.96V33.96ZM144.924 33.1052C143.443 32.5336 142.245 31.7672 141.282 30.828L137.093 35.124C138.69 36.6808 140.597 37.8664 142.763 38.7028L144.924 33.1052ZM141.309 30.8547C140.341 29.8867 139.603 28.7795 139.082 27.5137L133.534 29.7982C134.356 31.7965 135.538 33.5693 137.066 35.0973L141.309 30.8547ZM139.101 27.5607C138.605 26.2978 138.348 24.9275 138.348 23.424H132.348C132.348 25.6325 132.73 27.7502 133.515 29.7513L139.101 27.5607ZM138.348 23.424V22.272H132.348V23.424H138.348ZM138.348 22.272C138.348 20.7098 138.619 19.302 139.137 18.0194L133.574 15.7726C132.748 17.818 132.348 19.9942 132.348 22.272H138.348ZM139.119 18.0649C139.669 16.7645 140.435 15.6423 141.426 14.676L137.237 10.38C135.668 11.9097 134.451 13.6995 133.593 15.7271L139.119 18.0649ZM141.426 14.676C142.389 13.7368 143.587 12.9704 145.068 12.3988L142.907 6.80123C140.741 7.63756 138.834 8.82317 137.237 10.38L141.426 14.676ZM145.068 12.3988C146.501 11.8457 148.16 11.544 150.084 11.544V5.544C147.527 5.544 145.122 5.94632 142.907 6.80123L145.068 12.3988ZM150.084 11.544C152.046 11.544 153.697 11.8479 155.083 12.3923L157.277 6.80774C155.078 5.94415 152.665 5.544 150.084 5.544V11.544ZM155.099 12.3988C156.581 12.9704 157.778 13.7368 158.741 14.676L162.93 10.38C161.333 8.82317 159.427 7.63756 157.26 6.80123L155.099 12.3988ZM158.741 14.676C159.722 15.6326 160.465 16.7393 160.982 18.0194L166.545 15.7726C165.718 13.7247 164.509 11.9194 162.93 10.38L158.741 14.676ZM161.001 18.0649C161.539 19.3363 161.82 20.7281 161.82 22.272H167.82C167.82 19.9759 167.397 17.7837 166.527 15.7271L161.001 18.0649ZM161.82 22.272V23.424H167.82V22.272H161.82ZM161.82 23.424C161.82 24.9087 161.553 26.2626 161.038 27.5138L166.586 29.7982C167.414 27.7854 167.82 25.6513 167.82 23.424H161.82ZM161.019 27.5607C160.537 28.7882 159.819 29.8713 158.837 30.828L163.026 35.124C164.605 33.5847 165.806 31.7878 166.605 29.7513L161.019 27.5607ZM158.81 30.8547C157.889 31.7762 156.719 32.5356 155.243 33.1052L157.404 38.7028C159.576 37.8644 161.479 36.6718 163.053 35.0973L158.81 30.8547ZM155.243 33.1052C153.824 33.6531 152.12 33.96 150.084 33.96V39.96C152.719 39.96 155.175 39.5629 157.404 38.7028L155.243 33.1052ZM150.084 32.664C151.847 32.664 153.577 32.2849 155.06 31.2962L151.732 26.3038C151.487 26.4671 151.008 26.664 150.084 26.664V32.664ZM155.018 31.3235C156.437 30.4115 157.487 29.14 158.16 27.6025L152.663 25.1975C152.44 25.708 152.147 26.0365 151.773 26.2765L155.018 31.3235ZM158.173 27.5716C158.8 26.0955 159.084 24.5051 159.084 22.848H153.084C153.084 23.8149 152.92 24.5925 152.65 25.2284L158.173 27.5716ZM159.084 22.848C159.084 21.1255 158.783 19.474 158.08 17.9747L152.647 20.5213C152.904 21.07 153.084 21.8185 153.084 22.848H159.084ZM158.125 18.0763C157.466 16.522 156.435 15.2214 155.032 14.2696L151.663 19.2344C152.052 19.4986 152.365 19.862 152.602 20.4197L158.125 18.0763ZM155.032 14.2696C153.554 13.2666 151.853 12.84 150.084 12.84V18.84C150.875 18.84 151.349 19.0214 151.663 19.2344L155.032 14.2696ZM150.084 12.84C148.315 12.84 146.613 13.2666 145.135 14.2696L148.504 19.2344C148.818 19.0214 149.293 18.84 150.084 18.84V12.84ZM145.135 14.2696C143.75 15.2094 142.716 16.4858 142.025 18.0066L147.487 20.4894C147.755 19.8982 148.097 19.5106 148.504 19.2344L145.135 14.2696ZM142.007 18.0455C141.36 19.5256 141.084 21.1512 141.084 22.848H147.084C147.084 21.7928 147.256 21.0184 147.504 20.4505L142.007 18.0455ZM141.084 22.848C141.084 24.5051 141.368 26.0955 141.994 27.5716L147.517 25.2284C147.248 24.5925 147.084 23.8149 147.084 22.848H141.084ZM142.007 27.6025C142.68 29.14 143.731 30.4115 145.149 31.3235L148.394 26.2765C148.021 26.0365 147.727 25.708 147.504 25.1975L142.007 27.6025ZM145.149 31.3235C146.631 32.2758 148.33 32.664 150.084 32.664V26.664C149.213 26.664 148.705 26.4762 148.394 26.2765L145.149 31.3235ZM168.642 45.6H165.642V48.6H168.642V45.6ZM168.642 9.504V6.504H165.642V9.504H168.642ZM175.554 9.504H178.554V6.504H175.554V9.504ZM175.554 20.928V23.928H178.554V20.928H175.554ZM174.786 20.928L171.788 20.817L171.673 23.928H174.786V20.928ZM176.322 14.304L173.668 12.9068L173.658 12.9251L173.649 12.9436L176.322 14.304ZM180.21 10.176L181.693 12.7839L181.712 12.773L181.731 12.7618L180.21 10.176ZM190.77 9.744L189.525 12.4731L189.549 12.4844L189.574 12.4952L190.77 9.744ZM194.562 12.528L192.297 14.4951L192.31 14.51L192.324 14.5248L194.562 12.528ZM196.962 16.752L194.116 17.7007L194.125 17.7256L194.133 17.7505L196.962 16.752ZM197.058 28.704L199.921 29.602L199.923 29.5941L199.926 29.5863L197.058 28.704ZM194.754 33.024L197.049 34.9564L197.061 34.9418L197.074 34.9269L194.754 33.024ZM190.962 35.856L189.739 33.117L189.728 33.1219L189.717 33.1269L190.962 35.856ZM180.45 35.664L179.044 38.314L179.066 38.3253L179.087 38.3363L180.45 35.664ZM176.706 31.968L174.065 33.3903L174.081 33.4208L174.099 33.4509L176.706 31.968ZM175.266 25.728L177.592 23.833L172.042 17.0217L172.267 25.8049L175.266 25.728ZM177.378 28.32H180.378V27.2525L179.704 26.425L177.378 28.32ZM177.378 45.6V48.6H180.378V45.6H177.378ZM186.258 28.8L187.922 31.2962L187.933 31.2893L187.943 31.2824L186.258 28.8ZM188.322 26.304L185.623 24.9952L185.607 25.0287L185.591 25.0626L188.322 26.304ZM188.322 19.152L185.606 20.4253L185.63 20.4771L185.657 20.5279L188.322 19.152ZM186.306 16.8L184.642 19.2962L184.675 19.3179L184.708 19.3387L186.306 16.8ZM180.258 16.656L178.88 13.9913L178.861 14.0013L178.842 14.0116L180.258 16.656ZM178.05 18.768L180.599 20.3501L178.05 18.768ZM178.098 26.976L175.616 28.6605L175.63 28.6816L175.645 28.7025L178.098 26.976ZM180.402 28.992L179.024 31.6567L179.061 31.6757L179.098 31.6937L180.402 28.992ZM171.642 45.6V9.504H165.642V45.6H171.642ZM168.642 12.504H175.554V6.504H168.642V12.504ZM172.554 9.504V20.928H178.554V9.504H172.554ZM175.554 17.928H174.786V23.928H175.554V17.928ZM177.784 21.039C177.868 18.7695 178.311 17.0112 178.996 15.6644L173.649 12.9436C172.478 15.2448 171.896 17.9025 171.788 20.817L177.784 21.039ZM178.977 15.7012C179.697 14.3329 180.608 13.4011 181.693 12.7839L178.727 7.56813C176.549 8.80692 174.867 10.6271 173.668 12.9068L178.977 15.7012ZM181.731 12.7618C182.851 12.1034 184.186 11.736 185.826 11.736V5.736C183.243 5.736 180.834 6.32862 178.689 7.59019L181.731 12.7618ZM185.826 11.736C187.275 11.736 188.491 12.001 189.525 12.4731L192.016 7.01493C190.106 6.14295 188.025 5.736 185.826 5.736V11.736ZM189.574 12.4952C190.634 12.9562 191.534 13.6157 192.297 14.4951L196.827 10.5609C195.479 9.0083 193.85 7.81181 191.967 6.99279L189.574 12.4952ZM192.324 14.5248C193.086 15.3795 193.69 16.4228 194.116 17.7007L199.808 15.8033C199.146 13.8172 198.151 12.0445 196.801 10.5312L192.324 14.5248ZM194.133 17.7505C194.583 19.0235 194.826 20.4731 194.826 22.128H200.826C200.826 19.8789 200.494 17.7445 199.791 15.7535L194.133 17.7505ZM194.826 22.128V23.28H200.826V22.128H194.826ZM194.826 23.28C194.826 24.9687 194.605 26.4758 194.191 27.8217L199.926 29.5863C200.536 27.6042 200.826 25.4953 200.826 23.28H194.826ZM194.196 27.806C193.792 29.0934 193.201 30.1875 192.435 31.121L197.074 34.9269C198.356 33.3645 199.301 31.5786 199.921 29.602L194.196 27.806ZM192.46 31.0916C191.738 31.9487 190.845 32.6227 189.739 33.117L192.186 38.595C194.088 37.7453 195.723 36.5313 197.049 34.9564L192.46 31.0916ZM189.717 33.1269C188.702 33.5902 187.444 33.864 185.874 33.864V39.864C188.145 39.864 190.279 39.4658 192.208 38.5851L189.717 33.1269ZM185.874 33.864C184.223 33.864 182.896 33.5436 181.814 32.9917L179.087 38.3363C181.141 39.3844 183.43 39.864 185.874 39.864V33.864ZM181.857 33.014C180.821 32.4647 179.978 31.6517 179.314 30.4851L174.099 33.4509C175.291 35.5483 176.943 37.1993 179.044 38.314L181.857 33.014ZM179.348 30.5457C178.735 29.4071 178.321 27.8218 178.265 25.6511L172.267 25.8049C172.34 28.6262 172.886 31.2009 174.065 33.3903L179.348 30.5457ZM172.941 27.623L175.053 30.215L179.704 26.425L177.592 23.833L172.941 27.623ZM174.378 28.32V45.6H180.378V28.32H174.378ZM177.378 42.6H168.642V48.6H177.378V42.6ZM183.234 32.664C184.911 32.664 186.512 32.2361 187.922 31.2962L184.594 26.3038C184.276 26.5159 183.861 26.664 183.234 26.664V32.664ZM187.943 31.2824C189.328 30.3426 190.362 29.0662 191.053 27.5454L185.591 25.0626C185.323 25.6538 184.981 26.0414 184.574 26.3176L187.943 31.2824ZM191.022 27.6128C191.759 26.0934 192.09 24.4354 192.09 22.704H186.09C186.09 23.6606 185.91 24.4026 185.623 24.9952L191.022 27.6128ZM192.09 22.704C192.09 20.9588 191.765 19.2812 190.988 17.7761L185.657 20.5279C185.904 21.0068 186.09 21.6972 186.09 22.704H192.09ZM191.039 17.8787C190.342 16.3925 189.306 15.1438 187.905 14.2613L184.708 19.3387C185.034 19.5442 185.343 19.8635 185.606 20.4253L191.039 17.8787ZM187.97 14.3038C186.547 13.3548 184.925 12.936 183.234 12.936V18.936C183.912 18.936 184.338 19.0932 184.642 19.2962L187.97 14.3038ZM183.234 12.936C181.704 12.936 180.239 13.2885 178.88 13.9913L181.637 19.3207C182.134 19.0635 182.653 18.936 183.234 18.936V12.936ZM178.842 14.0116C177.447 14.7587 176.334 15.845 175.501 17.1859L180.599 20.3501C180.919 19.835 181.278 19.5133 181.675 19.3004L178.842 14.0116ZM175.501 17.1859C174.576 18.6768 174.186 20.3702 174.186 22.128H180.186C180.186 21.2618 180.373 20.7152 180.599 20.3501L175.501 17.1859ZM174.186 22.128V23.76H180.186V22.128H174.186ZM174.186 23.76C174.186 25.5143 174.621 27.1948 175.616 28.6605L180.581 25.2915C180.359 24.9652 180.186 24.5017 180.186 23.76H174.186ZM175.645 28.7025C176.527 29.9565 177.663 30.9524 179.024 31.6567L181.781 26.3273C181.286 26.0716 180.885 25.7235 180.552 25.2495L175.645 28.7025ZM179.098 31.6937C180.402 32.3233 181.79 32.664 183.234 32.664V26.664C182.759 26.664 182.258 26.5567 181.707 26.2903L179.098 31.6937ZM208.147 35.808L206.928 38.5494L208.147 35.808ZM203.779 32.688L206.006 30.6781V30.6781L203.779 32.688ZM201.043 28.272L198.232 29.3193L198.24 29.3434L198.25 29.3673L201.043 28.272ZM201.043 17.136L198.243 16.0591L198.237 16.0738L198.232 16.0887L201.043 17.136ZM203.731 12.72L201.528 10.6829L201.515 10.6979L201.501 10.7131L203.731 12.72ZM208.051 9.696L209.245 12.448L209.267 12.4386L209.288 12.4289L208.051 9.696ZM221.059 10.464L219.432 12.9849L221.059 10.464ZM225.619 15.552L222.935 16.8936L222.94 16.9019L222.944 16.9101L225.619 15.552ZM227.203 25.152V28.152H230.203V25.152H227.203ZM203.779 25.152H200.779V28.152H203.779V25.152ZM203.779 20.448V17.448H200.779V20.448H203.779ZM222.163 20.448L223.881 22.9075L231.698 17.448H222.163V20.448ZM219.139 22.56H216.139V28.3145L220.857 25.0195L219.139 22.56ZM218.515 18.768L215.695 19.7932L215.714 19.8455L215.735 19.8971L218.515 18.768ZM216.739 16.368L215.005 18.8161L215.028 18.8327L215.052 18.8488L216.739 16.368ZM210.787 16.368L212.359 18.923L212.372 18.9149L212.385 18.9067L210.787 16.368ZM208.867 18.768L211.628 19.9396L211.635 19.925L211.641 19.9102L208.867 18.768ZM208.819 26.64L206.017 27.7114L206.022 27.7255L206.028 27.7396L208.819 26.64ZM210.739 29.088L212.403 26.5919V26.5918L210.739 29.088ZM217.075 29.328L215.691 26.6663L215.668 26.678L215.646 26.6901L217.075 29.328ZM218.755 27.648V24.648H216.823L216.024 26.4066L218.755 27.648ZM226.723 27.648L229.656 28.2766L230.434 24.648H226.723V27.648ZM224.419 32.448L222.097 30.5483L222.084 30.5643L222.071 30.5804L224.419 32.448ZM220.099 35.76L218.857 33.0289L218.848 33.0332L218.838 33.0376L220.099 35.76ZM214.099 33.96C212.202 33.96 210.645 33.6356 209.365 33.0666L206.928 38.5494C209.104 39.5164 211.515 39.96 214.099 39.96V33.96ZM209.365 33.0666C207.994 32.457 206.889 31.6569 206.006 30.6781L201.552 34.6979C203.036 36.3431 204.844 37.623 206.928 38.5494L209.365 33.0666ZM206.006 30.6781C205.062 29.6322 204.343 28.4695 203.836 27.1767L198.25 29.3673C199.023 31.3385 200.127 33.1198 201.552 34.6979L206.006 30.6781ZM203.854 27.2247C203.37 25.9251 203.131 24.5996 203.131 23.232H197.131C197.131 25.3204 197.5 27.3549 198.232 29.3193L203.854 27.2247ZM203.131 23.232V22.272H197.131V23.232H203.131ZM203.131 22.272C203.131 20.827 203.374 19.4705 203.854 18.1833L198.232 16.0887C197.495 18.0655 197.131 20.133 197.131 22.272H203.131ZM203.843 18.2129C204.356 16.8789 205.063 15.7247 205.961 14.7269L201.501 10.7131C200.095 12.2753 199.01 14.0651 198.243 16.0591L203.843 18.2129ZM205.933 14.7571C206.817 13.801 207.908 13.0284 209.245 12.448L206.856 6.94396C204.802 7.83555 203.012 9.07898 201.528 10.6829L205.933 14.7571ZM209.288 12.4289C210.541 11.8617 212.029 11.544 213.811 11.544V5.544C211.304 5.544 208.953 5.99431 206.813 6.96314L209.288 12.4289ZM213.811 11.544C216.202 11.544 218.025 12.077 219.432 12.9849L222.685 7.94311C220.124 6.29103 217.116 5.544 213.811 5.544V11.544ZM219.432 12.9849C220.965 13.9735 222.12 15.2622 222.935 16.8936L228.302 14.2104C227.006 11.6178 225.121 9.51447 222.685 7.94311L219.432 12.9849ZM222.944 16.9101C223.774 18.5456 224.203 20.3486 224.203 22.368H230.203C230.203 19.4594 229.575 16.7184 228.294 14.1939L222.944 16.9101ZM224.203 22.368V25.152H230.203V22.368H224.203ZM227.203 22.152H203.779V28.152H227.203V22.152ZM206.779 25.152V20.448H200.779V25.152H206.779ZM203.779 23.448H222.163V17.448H203.779V23.448ZM220.445 17.9885L217.421 20.1005L220.857 25.0195L223.881 22.9075L220.445 17.9885ZM222.139 22.56C222.139 20.7998 221.898 19.1256 221.294 17.6389L215.735 19.8971C215.963 20.4584 216.139 21.3122 216.139 22.56H222.139ZM221.334 17.7428C220.771 16.1936 219.827 14.8404 218.426 13.8872L215.052 18.8488C215.25 18.9836 215.491 19.2304 215.695 19.7932L221.334 17.7428ZM218.473 13.9199C217.08 12.9337 215.455 12.552 213.811 12.552V18.552C214.535 18.552 214.861 18.7143 215.005 18.8161L218.473 13.9199ZM213.811 12.552C212.168 12.552 210.59 12.9465 209.188 13.8293L212.385 18.9067C212.711 18.7015 213.15 18.552 213.811 18.552V12.552ZM209.214 13.813C207.74 14.7205 206.732 16.0743 206.093 17.6257L211.641 19.9102C211.898 19.2857 212.17 19.0395 212.359 18.923L209.214 13.813ZM206.105 17.5963C205.448 19.1446 205.195 20.9228 205.195 22.8H211.195C211.195 21.4132 211.389 20.5034 211.628 19.9396L206.105 17.5963ZM205.195 22.8C205.195 24.5456 205.44 26.2044 206.017 27.7114L211.621 25.5686C211.365 24.8996 211.195 23.9984 211.195 22.8H205.195ZM206.028 27.7396C206.646 29.3097 207.654 30.6369 209.075 31.5842L212.403 26.5918C212.096 26.3871 211.823 26.0823 211.61 25.5404L206.028 27.7396ZM209.075 31.5841C210.568 32.5799 212.32 32.952 214.099 32.952V26.952C213.126 26.952 212.637 26.7481 212.403 26.5919L209.075 31.5841ZM214.099 32.952C215.628 32.952 217.159 32.6944 218.504 31.9659L215.646 26.6901C215.455 26.7936 215.001 26.952 214.099 26.952V32.952ZM218.459 31.9897C219.751 31.3178 220.844 30.3021 221.486 28.8894L216.024 26.4066C216.016 26.4232 216.005 26.4428 215.973 26.4747C215.938 26.5103 215.856 26.5805 215.691 26.6663L218.459 31.9897ZM218.755 30.648H226.723V24.648H218.755V30.648ZM223.789 27.0194C223.504 28.3487 222.945 29.5122 222.097 30.5483L226.741 34.3477C228.197 32.5678 229.173 30.5313 229.656 28.2766L223.789 27.0194ZM222.071 30.5804C221.268 31.5898 220.218 32.4102 218.857 33.0289L221.34 38.4911C223.499 37.5098 225.329 36.1222 226.767 34.3156L222.071 30.5804ZM218.838 33.0376C217.574 33.6228 216.018 33.96 214.099 33.96V39.96C216.723 39.96 219.167 39.4972 221.359 38.4824L218.838 33.0376ZM230.847 36H227.847V39H230.847V36ZM230.847 9.504V6.504H227.847V9.504H230.847ZM237.759 9.504H240.759V6.504H237.759V9.504ZM237.759 21.024V24.024H240.759V21.024H237.759ZM237.663 21.024H234.663V24.024H237.663V21.024ZM239.967 12.288L237.559 10.4997L237.55 10.5115L237.541 10.5235L239.967 12.288ZM247.743 9.12H250.743V6.12H247.743V9.12ZM247.743 16.608V19.608H250.743V16.608H247.743ZM241.167 18.192L239.078 16.0393L239.062 16.0548L239.046 16.0707L241.167 18.192ZM239.583 36V39H242.583V36H239.583ZM233.847 36V9.504H227.847V36H233.847ZM230.847 12.504H237.759V6.504H230.847V12.504ZM234.759 9.504V21.024H240.759V9.504H234.759ZM237.759 18.024H237.663V24.024H237.759V18.024ZM240.663 21.024C240.663 17.6877 241.358 15.4763 242.394 14.0525L237.541 10.5235C235.505 13.3237 234.663 16.9363 234.663 21.024H240.663ZM242.376 14.0763C243.312 12.8161 244.607 12.12 246.687 12.12V6.12C242.943 6.12 239.759 7.53589 237.559 10.4997L242.376 14.0763ZM246.687 12.12H247.743V6.12H246.687V12.12ZM244.743 9.12V16.608H250.743V9.12H244.743ZM247.743 13.608H245.727V19.608H247.743V13.608ZM245.727 13.608C243.229 13.608 240.873 14.2965 239.078 16.0393L243.257 20.3447C243.637 19.9755 244.322 19.608 245.727 19.608V13.608ZM239.046 16.0707C237.261 17.8553 236.583 20.2427 236.583 22.752H242.583C242.583 21.2933 242.961 20.6407 243.289 20.3133L239.046 16.0707ZM236.583 22.752V36H242.583V22.752H236.583ZM239.583 33H230.847V39H239.583V33Z" fill="black" mask="url(#path-1-outside-1_181_1063)"/>
</svg>

