<svg width="145" height="27" viewBox="0 0 145 27" fill="none" xmlns="http://www.w3.org/2000/svg">
<mask id="path-1-outside-1_320_288" maskUnits="userSpaceOnUse" x="-2" y="-2" width="148" height="30" fill="black">
<rect fill="white" x="-2" y="-2" width="148" height="30"/>
<path d="M4.72 21.112V16.24H8.08C8.95733 16.24 9.74133 16.1187 10.432 15.876C11.1413 15.6147 11.7387 15.2507 12.224 14.784C12.7093 14.2987 13.0827 13.72 13.344 13.048C13.6053 12.3573 13.736 11.5827 13.736 10.724C13.736 9.828 13.6053 9.044 13.344 8.372C13.0827 7.68133 12.7093 7.112 12.224 6.664C11.7387 6.19733 11.1413 5.852 10.432 5.628C9.74133 5.38533 8.95733 5.264 8.08 5.264H4.72V0.391998H7.856C9.704 0.391998 11.3187 0.653332 12.7 1.176C14.1 1.69867 15.2667 2.42667 16.2 3.36C17.1333 4.27467 17.8333 5.33867 18.3 6.552C18.7667 7.76533 19 9.05333 19 10.416V11.032C19 12.2827 18.7667 13.5147 18.3 14.728C17.8333 15.9227 17.1333 17.0053 16.2 17.976C15.2667 18.928 14.1 19.6933 12.7 20.272C11.3187 20.832 9.704 21.112 7.856 21.112H4.72ZM0.072 21.112V0.391998H5.28V21.112H0.072ZM28.333 21.56C27.0263 21.56 25.869 21.336 24.861 20.888C23.853 20.44 23.0036 19.8333 22.313 19.068C21.6223 18.3027 21.0903 17.444 20.717 16.492C20.3623 15.54 20.185 14.56 20.185 13.552V12.992C20.185 11.9467 20.3623 10.948 20.717 9.996C21.0903 9.02533 21.613 8.16667 22.285 7.42C22.9756 6.67333 23.8156 6.08533 24.805 5.656C25.7943 5.208 26.9143 4.984 28.165 4.984C29.8263 4.984 31.2356 5.35733 32.393 6.104C33.5503 6.85067 34.437 7.84 35.053 9.072C35.669 10.2853 35.977 11.6107 35.977 13.048V14.672H22.313V11.928H33.037L31.273 13.16C31.273 12.2827 31.1516 11.5453 30.909 10.948C30.685 10.332 30.3396 9.86533 29.873 9.548C29.425 9.23067 28.8556 9.072 28.165 9.072C27.493 9.072 26.905 9.23067 26.401 9.548C25.9156 9.84667 25.5423 10.3133 25.281 10.948C25.0196 11.564 24.889 12.348 24.889 13.3C24.889 14.1587 25.0103 14.9053 25.253 15.54C25.4956 16.156 25.869 16.632 26.373 16.968C26.877 17.304 27.5303 17.472 28.333 17.472C29.0423 17.472 29.621 17.3507 30.069 17.108C30.5356 16.8653 30.8623 16.5387 31.049 16.128H35.697C35.473 17.1733 35.025 18.1067 34.353 18.928C33.6996 19.7493 32.8596 20.3933 31.833 20.86C30.825 21.3267 29.6583 21.56 28.333 21.56ZM40.8509 21L36.4269 5.544H41.6349L45.7509 21H40.8509ZM42.4749 21V16.744H47.4309V21H42.4749ZM44.2669 21L47.7669 5.544H52.6389L48.8309 21H44.2669ZM61.3106 21.56C60.004 21.56 58.8466 21.336 57.8386 20.888C56.8306 20.44 55.9813 19.8333 55.2906 19.068C54.6 18.3027 54.068 17.444 53.6946 16.492C53.34 15.54 53.1626 14.56 53.1626 13.552V12.992C53.1626 11.9467 53.34 10.948 53.6946 9.996C54.068 9.02533 54.5906 8.16667 55.2626 7.42C55.9533 6.67333 56.7933 6.08533 57.7826 5.656C58.772 5.208 59.892 4.984 61.1426 4.984C62.804 4.984 64.2133 5.35733 65.3706 6.104C66.528 6.85067 67.4146 7.84 68.0306 9.072C68.6466 10.2853 68.9546 11.6107 68.9546 13.048V14.672H55.2906V11.928H66.0146L64.2506 13.16C64.2506 12.2827 64.1293 11.5453 63.8866 10.948C63.6626 10.332 63.3173 9.86533 62.8506 9.548C62.4026 9.23067 61.8333 9.072 61.1426 9.072C60.4706 9.072 59.8826 9.23067 59.3786 9.548C58.8933 9.84667 58.52 10.3133 58.2586 10.948C57.9973 11.564 57.8666 12.348 57.8666 13.3C57.8666 14.1587 57.988 14.9053 58.2306 15.54C58.4733 16.156 58.8466 16.632 59.3506 16.968C59.8546 17.304 60.508 17.472 61.3106 17.472C62.02 17.472 62.5986 17.3507 63.0466 17.108C63.5133 16.8653 63.84 16.5387 64.0266 16.128H68.6746C68.4506 17.1733 68.0026 18.1067 67.3306 18.928C66.6773 19.7493 65.8373 20.3933 64.8106 20.86C63.8026 21.3267 62.636 21.56 61.3106 21.56ZM71.3047 21V0.559999H76.4007V21H71.3047ZM69.5687 4.256V0.559999H76.4007V4.256H69.5687ZM87.2988 21.56C85.9361 21.56 84.7228 21.3547 83.6588 20.944C82.5948 20.5333 81.6894 19.964 80.9428 19.236C80.2148 18.508 79.6548 17.668 79.2628 16.716C78.8894 15.764 78.7028 14.7467 78.7028 13.664V12.992C78.7028 11.872 78.8988 10.8267 79.2908 9.856C79.7014 8.88533 80.2801 8.036 81.0268 7.308C81.7734 6.58 82.6788 6.01067 83.7428 5.6C84.8068 5.18933 85.9921 4.984 87.2988 4.984C88.6241 4.984 89.8094 5.18933 90.8548 5.6C91.9188 6.01067 92.8241 6.58 93.5708 7.308C94.3174 8.036 94.8868 8.88533 95.2788 9.856C95.6894 10.8267 95.8948 11.872 95.8948 12.992V13.664C95.8948 14.7467 95.6988 15.764 95.3068 16.716C94.9334 17.668 94.3734 18.508 93.6268 19.236C92.8988 19.964 92.0028 20.5333 90.9388 20.944C89.8748 21.3547 88.6614 21.56 87.2988 21.56ZM87.2988 17.304C88.0828 17.304 88.7268 17.136 89.2308 16.8C89.7534 16.464 90.1454 15.9973 90.4068 15.4C90.6681 14.784 90.7988 14.0933 90.7988 13.328C90.7988 12.5253 90.6588 11.8253 90.3788 11.228C90.1174 10.612 89.7254 10.1267 89.2028 9.772C88.6801 9.41733 88.0454 9.24 87.2988 9.24C86.5521 9.24 85.9174 9.41733 85.3948 9.772C84.8721 10.1267 84.4708 10.612 84.1908 11.228C83.9294 11.8253 83.7988 12.5253 83.7988 13.328C83.7988 14.0933 83.9294 14.784 84.1908 15.4C84.4521 15.9973 84.8441 16.464 85.3668 16.8C85.8894 17.136 86.5334 17.304 87.2988 17.304ZM98.1247 26.6V5.544H102.157V12.208H101.709C101.765 10.696 102.063 9.408 102.605 8.344C103.165 7.28 103.921 6.47733 104.873 5.936C105.825 5.376 106.917 5.096 108.149 5.096C109.213 5.096 110.174 5.292 111.033 5.684C111.891 6.05733 112.629 6.59867 113.245 7.308C113.861 7.99867 114.327 8.82 114.645 9.772C114.981 10.724 115.149 11.7693 115.149 12.908V13.58C115.149 14.7187 114.999 15.7733 114.701 16.744C114.402 17.696 113.954 18.536 113.357 19.264C112.759 19.9733 112.022 20.524 111.145 20.916C110.286 21.308 109.297 21.504 108.177 21.504C106.982 21.504 105.927 21.2707 105.013 20.804C104.098 20.3187 103.37 19.6 102.829 18.648C102.306 17.6773 102.026 16.464 101.989 15.008L103.221 16.52V26.6H98.1247ZM106.637 17.304C107.309 17.304 107.897 17.136 108.401 16.8C108.923 16.4453 109.325 15.96 109.605 15.344C109.903 14.728 110.053 14.028 110.053 13.244C110.053 12.4413 109.903 11.7507 109.605 11.172C109.325 10.5747 108.933 10.1173 108.429 9.8C107.925 9.464 107.327 9.296 106.637 9.296C106.021 9.296 105.442 9.436 104.901 9.716C104.378 9.996 103.949 10.4067 103.613 10.948C103.277 11.4893 103.109 12.1427 103.109 12.908V13.86C103.109 14.588 103.286 15.2133 103.641 15.736C103.995 16.24 104.443 16.632 104.985 16.912C105.526 17.1733 106.077 17.304 106.637 17.304ZM124.641 21.56C123.334 21.56 122.177 21.336 121.169 20.888C120.161 20.44 119.312 19.8333 118.621 19.068C117.93 18.3027 117.398 17.444 117.025 16.492C116.67 15.54 116.493 14.56 116.493 13.552V12.992C116.493 11.9467 116.67 10.948 117.025 9.996C117.398 9.02533 117.921 8.16667 118.593 7.42C119.284 6.67333 120.124 6.08533 121.113 5.656C122.102 5.208 123.222 4.984 124.473 4.984C126.134 4.984 127.544 5.35733 128.701 6.104C129.858 6.85067 130.745 7.84 131.361 9.072C131.977 10.2853 132.285 11.6107 132.285 13.048V14.672H118.621V11.928H129.345L127.581 13.16C127.581 12.2827 127.46 11.5453 127.217 10.948C126.993 10.332 126.648 9.86533 126.181 9.548C125.733 9.23067 125.164 9.072 124.473 9.072C123.801 9.072 123.213 9.23067 122.709 9.548C122.224 9.84667 121.85 10.3133 121.589 10.948C121.328 11.564 121.197 12.348 121.197 13.3C121.197 14.1587 121.318 14.9053 121.561 15.54C121.804 16.156 122.177 16.632 122.681 16.968C123.185 17.304 123.838 17.472 124.641 17.472C125.35 17.472 125.929 17.3507 126.377 17.108C126.844 16.8653 127.17 16.5387 127.357 16.128H132.005C131.781 17.1733 131.333 18.1067 130.661 18.928C130.008 19.7493 129.168 20.3933 128.141 20.86C127.133 21.3267 125.966 21.56 124.641 21.56ZM134.411 21V5.544H138.443V12.264H138.387C138.387 10.0987 138.835 8.4 139.731 7.168C140.646 5.936 141.952 5.32 143.651 5.32H144.267V9.688H143.091C141.952 9.688 141.066 9.996 140.431 10.612C139.815 11.228 139.507 12.1147 139.507 13.272V21H134.411Z"/>
</mask>
<path d="M4.72 21.112H3.32V22.512H4.72V21.112ZM4.72 16.24V14.84H3.32V16.24H4.72ZM10.432 15.876L10.8961 17.1968L10.9061 17.1933L10.916 17.1897L10.432 15.876ZM12.224 14.784L13.1944 15.7932L13.2042 15.7837L13.2139 15.7739L12.224 14.784ZM13.344 13.048L14.6489 13.5554L14.6534 13.5434L13.344 13.048ZM13.344 8.372L12.0345 8.86747L12.0392 8.87942L13.344 8.372ZM12.224 6.664L11.2536 7.67317L11.2639 7.68305L11.2744 7.69273L12.224 6.664ZM10.432 5.628L9.96792 6.94884L9.98905 6.95627L10.0104 6.96301L10.432 5.628ZM4.72 5.264H3.32V6.664H4.72V5.264ZM4.72 0.391998V-1.008H3.32V0.391998H4.72ZM12.7 1.176L12.2045 2.48541L12.2103 2.48758L12.7 1.176ZM16.2 3.36L15.21 4.35L15.2201 4.3599L16.2 3.36ZM18.3 6.552L16.9933 7.05457V7.05457L18.3 6.552ZM18.3 14.728L19.6041 15.2374L19.6067 15.2306L18.3 14.728ZM16.2 17.976L17.1997 18.9561L17.2092 18.9464L16.2 17.976ZM12.7 20.272L13.226 21.5695L13.2348 21.5658L12.7 20.272ZM0.072 21.112H-1.328V22.512H0.072V21.112ZM0.072 0.391998V-1.008H-1.328V0.391998H0.072ZM5.28 0.391998H6.68V-1.008H5.28V0.391998ZM5.28 21.112V22.512H6.68V21.112H5.28ZM6.12 21.112V16.24H3.32V21.112H6.12ZM4.72 17.64H8.08V14.84H4.72V17.64ZM8.08 17.64C9.08492 17.64 10.03 17.5011 10.8961 17.1968L9.96792 14.5552C9.45263 14.7362 8.82975 14.84 8.08 14.84V17.64ZM10.916 17.1897C11.7844 16.8697 12.5535 16.4094 13.1944 15.7932L11.2536 13.7748C10.9238 14.092 10.4982 14.3596 9.94801 14.5623L10.916 17.1897ZM13.2139 15.7739C13.8435 15.1444 14.3207 14.399 14.6488 13.5554L12.0392 12.5406C11.8446 13.041 11.5752 13.4529 11.2341 13.7941L13.2139 15.7739ZM14.6534 13.5434C14.9835 12.671 15.136 11.7248 15.136 10.724H12.336C12.336 11.4405 12.2271 12.0437 12.0346 12.5526L14.6534 13.5434ZM15.136 10.724C15.136 9.69505 14.9863 8.73233 14.6488 7.86457L12.0392 8.87942C12.2244 9.35566 12.336 9.96095 12.336 10.724H15.136ZM14.6534 7.87655C14.3243 7.00686 13.8367 6.24733 13.1736 5.63527L11.2744 7.69273C11.582 7.97667 11.841 8.3558 12.0346 8.86745L14.6534 7.87655ZM13.1944 5.65483C12.5379 5.02365 11.7466 4.575 10.8536 4.29298L10.0104 6.96301C10.536 7.12899 10.9394 7.37102 11.2536 7.67317L13.1944 5.65483ZM10.8961 4.30716C10.03 4.00287 9.08492 3.864 8.08 3.864V6.664C8.82975 6.664 9.45263 6.7678 9.96792 6.94884L10.8961 4.30716ZM8.08 3.864H4.72V6.664H8.08V3.864ZM6.12 5.264V0.391998H3.32V5.264H6.12ZM4.72 1.792H7.856V-1.008H4.72V1.792ZM7.856 1.792C9.57561 1.792 11.0157 2.03557 12.2046 2.4854L13.1955 -0.1334C11.6216 -0.728909 9.83239 -1.008 7.856 -1.008V1.792ZM12.2103 2.48758C13.4473 2.94939 14.4362 3.57605 15.2101 4.34995L17.1899 2.37005C16.0972 1.27728 14.7527 0.447948 13.1897 -0.135578L12.2103 2.48758ZM15.2201 4.3599C16.0109 5.13488 16.5991 6.02953 16.9933 7.05457L19.6067 6.04943C19.0676 4.6478 18.2558 3.41445 17.1799 2.3601L15.2201 4.3599ZM16.9933 7.05457C17.3954 8.09987 17.6 9.21677 17.6 10.416H20.4C20.4 8.8899 20.138 7.43079 19.6067 6.04943L16.9933 7.05457ZM17.6 10.416V11.032H20.4V10.416H17.6ZM17.6 11.032C17.6 12.1041 17.4008 13.166 16.9933 14.2254L19.6067 15.2306C20.1326 13.8633 20.4 12.4612 20.4 11.032H17.6ZM16.996 14.2186C16.5996 15.2332 16.003 16.161 15.1908 17.0056L17.2092 18.9464C18.2637 17.8497 19.067 16.6121 19.604 15.2374L16.996 14.2186ZM15.2003 16.9959C14.416 17.7959 13.4144 18.4619 12.1652 18.9782L13.2348 21.5658C14.7856 20.9248 16.1173 20.0601 17.1997 18.9561L15.2003 16.9959ZM12.174 18.9746C10.9946 19.4527 9.56553 19.712 7.856 19.712V22.512C9.84247 22.512 11.6427 22.2113 13.226 21.5694L12.174 18.9746ZM7.856 19.712H4.72V22.512H7.856V19.712ZM1.472 21.112V0.391998H-1.328V21.112H1.472ZM0.072 1.792H5.28V-1.008H0.072V1.792ZM3.88 0.391998V21.112H6.68V0.391998H3.88ZM5.28 19.712H0.072V22.512H5.28V19.712ZM24.861 20.888L24.2924 22.1673L24.861 20.888ZM22.313 19.068L23.3523 18.13L22.313 19.068ZM20.717 16.492L19.4051 16.9808L19.4092 16.992L19.4136 17.0031L20.717 16.492ZM20.717 9.996L19.4103 9.49343L19.4076 9.50032L19.4051 9.50725L20.717 9.996ZM22.285 7.42L21.2572 6.46934L21.2507 6.47635L21.2444 6.48345L22.285 7.42ZM24.805 5.656L25.3623 6.94028L25.3724 6.93589L25.3825 6.93133L24.805 5.656ZM32.393 6.104L31.634 7.28041V7.28042L32.393 6.104ZM35.053 9.072L33.8007 9.69811L33.8046 9.70577L35.053 9.072ZM35.977 14.672V16.072H37.377V14.672H35.977ZM22.313 14.672H20.913V16.072H22.313V14.672ZM22.313 11.928V10.528H20.913V11.928H22.313ZM33.037 11.928L33.8386 13.0758L37.4866 10.528H33.037V11.928ZM31.273 13.16H29.873V15.8454L32.0746 14.3078L31.273 13.16ZM30.909 10.948L29.5933 11.4264L29.6021 11.4509L29.6119 11.4749L30.909 10.948ZM29.873 9.548L29.0637 10.6904L29.0747 10.6982L29.0857 10.7057L29.873 9.548ZM26.401 9.548L27.1347 10.7403L27.1408 10.7366L27.1469 10.7327L26.401 9.548ZM25.281 10.948L26.5698 11.4948L26.5727 11.4879L26.5755 11.481L25.281 10.948ZM25.253 15.54L23.9452 16.04L23.9504 16.0531L25.253 15.54ZM26.373 16.968L27.1496 15.8031H27.1495L26.373 16.968ZM30.069 17.108L29.4231 15.8659L29.4126 15.8714L29.4022 15.877L30.069 17.108ZM31.049 16.128V14.728H30.1475L29.7745 15.5487L31.049 16.128ZM35.697 16.128L37.0659 16.4213L37.4287 14.728H35.697V16.128ZM34.353 18.928L33.2694 18.0415L33.2633 18.0489L33.2573 18.0565L34.353 18.928ZM31.833 20.86L31.2536 19.5855L31.2448 19.5895L31.833 20.86ZM28.333 20.16C27.1865 20.16 26.2286 19.9638 25.4296 19.6087L24.2924 22.1673C25.5093 22.7082 26.8661 22.96 28.333 22.96V20.16ZM25.4296 19.6087C24.5879 19.2346 23.9027 18.7399 23.3523 18.13L21.2736 20.006C22.1046 20.9268 23.118 21.6454 24.2924 22.1673L25.4296 19.6087ZM23.3523 18.13C22.7737 17.4889 22.3316 16.7746 22.0203 15.9809L19.4136 17.0031C19.849 18.1134 20.4709 19.1164 21.2736 20.006L23.3523 18.13ZM22.0289 16.0032C21.732 15.2064 21.585 14.3918 21.585 13.552H18.785C18.785 14.7282 18.9926 15.8736 19.4051 16.9808L22.0289 16.0032ZM21.585 13.552V12.992H18.785V13.552H21.585ZM21.585 12.992C21.585 12.1086 21.7342 11.2758 22.0289 10.4848L19.4051 9.50725C18.9904 10.6202 18.785 11.7847 18.785 12.992H21.585ZM22.0237 10.4986C22.3378 9.68188 22.7721 8.97155 23.3256 8.35655L21.2444 6.48345C20.4539 7.36178 19.8428 8.36879 19.4103 9.49343L22.0237 10.4986ZM23.3127 8.37066C23.8636 7.77514 24.5403 7.29701 25.3623 6.94028L24.2476 4.37172C23.091 4.87366 22.0877 5.57152 21.2572 6.46934L23.3127 8.37066ZM25.3825 6.93133C26.1648 6.57705 27.0834 6.384 28.165 6.384V3.584C26.7452 3.584 25.4238 3.83894 24.2275 4.38066L25.3825 6.93133ZM28.165 6.384C29.6131 6.384 30.7458 6.70739 31.634 7.28041L33.1519 4.92758C31.7255 4.00728 30.0395 3.584 28.165 3.584V6.384ZM31.634 7.28042C32.5806 7.89112 33.2969 8.69038 33.8008 9.6981L36.3052 8.4459C35.577 6.98962 34.52 5.81022 33.1519 4.92758L31.634 7.28042ZM33.8046 9.70577C34.3153 10.7117 34.577 11.8182 34.577 13.048H37.377C37.377 11.4032 37.0226 9.859 36.3013 8.43823L33.8046 9.70577ZM34.577 13.048V14.672H37.377V13.048H34.577ZM35.977 13.272H22.313V16.072H35.977V13.272ZM23.713 14.672V11.928H20.913V14.672H23.713ZM22.313 13.328H33.037V10.528H22.313V13.328ZM32.2353 10.7802L30.4713 12.0122L32.0746 14.3078L33.8386 13.0758L32.2353 10.7802ZM32.673 13.16C32.673 12.1631 32.5364 11.2343 32.206 10.4211L29.6119 11.4749C29.7669 11.8563 29.873 12.4022 29.873 13.16H32.673ZM32.2247 10.4696C31.917 9.6234 31.4076 8.89856 30.6602 8.3903L29.0857 10.7057C29.2716 10.8321 29.453 11.0406 29.5933 11.4264L32.2247 10.4696ZM30.6822 8.40557C29.9428 7.88186 29.0703 7.672 28.165 7.672V10.472C28.641 10.472 28.9071 10.5795 29.0637 10.6904L30.6822 8.40557ZM28.165 7.672C27.2638 7.672 26.4101 7.88783 25.655 8.36327L27.1469 10.7327C27.3998 10.5735 27.7221 10.472 28.165 10.472V7.672ZM25.6672 8.35568C24.882 8.83891 24.3368 9.56402 23.9864 10.4149L26.5755 11.481C26.7478 11.0626 26.9493 10.8544 27.1347 10.7403L25.6672 8.35568ZM23.9922 10.4012C23.6334 11.2469 23.489 12.2336 23.489 13.3H26.289C26.289 12.4624 26.4059 11.8811 26.5698 11.4948L23.9922 10.4012ZM23.489 13.3C23.489 14.2864 23.6279 15.2098 23.9453 16.04L26.5606 15.04C26.3927 14.6009 26.289 14.031 26.289 13.3H23.489ZM23.9504 16.0531C24.2876 16.909 24.8325 17.6236 25.5964 18.1329L27.1495 15.8031C26.9054 15.6404 26.7037 15.403 26.5555 15.0269L23.9504 16.0531ZM25.5964 18.1329C26.3942 18.6647 27.3422 18.872 28.333 18.872V16.072C27.7184 16.072 27.3597 15.9433 27.1496 15.8031L25.5964 18.1329ZM28.333 18.872C29.1887 18.872 30.0185 18.7275 30.7358 18.339L29.4022 15.877C29.2235 15.9738 28.8959 16.072 28.333 16.072V18.872ZM30.7149 18.3501C31.4112 17.988 31.9865 17.4487 32.3235 16.7073L29.7745 15.5487C29.7381 15.6286 29.6601 15.7426 29.4231 15.8659L30.7149 18.3501ZM31.049 17.528H35.697V14.728H31.049V17.528ZM34.328 15.8347C34.1503 16.6641 33.7994 17.3937 33.2694 18.0415L35.4365 19.8145C36.2505 18.8196 36.7956 17.6826 37.0659 16.4213L34.328 15.8347ZM33.2573 18.0565C32.752 18.6918 32.0942 19.2034 31.2536 19.5855L32.4123 22.1345C33.6251 21.5832 34.6473 20.8069 35.4486 19.7995L33.2573 18.0565ZM31.2448 19.5895C30.4533 19.956 29.4939 20.16 28.333 20.16V22.96C29.8227 22.96 31.1966 22.6973 32.4211 22.1305L31.2448 19.5895ZM40.8509 21L39.505 21.3853L39.7954 22.4H40.8509V21ZM36.4269 5.544V4.144H34.57L35.081 5.92925L36.4269 5.544ZM41.6349 5.544L42.9878 5.18373L42.7109 4.144H41.6349V5.544ZM45.7509 21V22.4H47.5726L47.1038 20.6397L45.7509 21ZM42.4749 21H41.0749V22.4H42.4749V21ZM42.4749 16.744V15.344H41.0749V16.744H42.4749ZM47.4309 16.744H48.8309V15.344H47.4309V16.744ZM47.4309 21V22.4H48.8309V21H47.4309ZM44.2669 21L42.9015 20.6908L42.5145 22.4H44.2669V21ZM47.7669 5.544V4.144H46.6485L46.4015 5.2348L47.7669 5.544ZM52.6389 5.544L53.9983 5.87891L54.4257 4.144H52.6389V5.544ZM48.8309 21V22.4H49.9279L50.1903 21.3349L48.8309 21ZM42.1969 20.6147L37.7729 5.15874L35.081 5.92925L39.505 21.3853L42.1969 20.6147ZM36.4269 6.944H41.6349V4.144H36.4269V6.944ZM40.2821 5.90427L44.3981 21.3603L47.1038 20.6397L42.9878 5.18373L40.2821 5.90427ZM45.7509 19.6H40.8509V22.4H45.7509V19.6ZM43.8749 21V16.744H41.0749V21H43.8749ZM42.4749 18.144H47.4309V15.344H42.4749V18.144ZM46.0309 16.744V21H48.8309V16.744H46.0309ZM47.4309 19.6H42.4749V22.4H47.4309V19.6ZM45.6324 21.3092L49.1324 5.8532L46.4015 5.2348L42.9015 20.6908L45.6324 21.3092ZM47.7669 6.944H52.6389V4.144H47.7669V6.944ZM51.2796 5.20909L47.4716 20.6651L50.1903 21.3349L53.9983 5.87891L51.2796 5.20909ZM48.8309 19.6H44.2669V22.4H48.8309V19.6ZM57.8386 20.888L57.27 22.1673L57.8386 20.888ZM55.2906 19.068L56.33 18.13L55.2906 19.068ZM53.6946 16.492L52.3827 16.9808L52.3869 16.992L52.3913 17.0031L53.6946 16.492ZM53.6946 9.996L52.3879 9.49343L52.3853 9.50032L52.3827 9.50725L53.6946 9.996ZM55.2626 7.42L54.2349 6.46934L54.2284 6.47635L54.222 6.48345L55.2626 7.42ZM57.7826 5.656L58.34 6.94028L58.3501 6.93589L58.3601 6.93133L57.7826 5.656ZM65.3706 6.104L64.6116 7.28041V7.28042L65.3706 6.104ZM68.0306 9.072L66.7784 9.69811L66.7823 9.70577L68.0306 9.072ZM68.9546 14.672V16.072H70.3546V14.672H68.9546ZM55.2906 14.672H53.8906V16.072H55.2906V14.672ZM55.2906 11.928V10.528H53.8906V11.928H55.2906ZM66.0146 11.928L66.8162 13.0758L70.4642 10.528H66.0146V11.928ZM64.2506 13.16H62.8506V15.8454L65.0522 14.3078L64.2506 13.16ZM63.8866 10.948L62.5709 11.4264L62.5798 11.4509L62.5896 11.4749L63.8866 10.948ZM62.8506 9.548L62.0414 10.6904L62.0523 10.6982L62.0634 10.7057L62.8506 9.548ZM59.3786 9.548L60.1124 10.7403L60.1185 10.7366L60.1246 10.7327L59.3786 9.548ZM58.2586 10.948L59.5474 11.4948L59.5503 11.4879L59.5532 11.481L58.2586 10.948ZM58.2306 15.54L56.9229 16.04L56.9281 16.0531L58.2306 15.54ZM59.3506 16.968L60.1272 15.8031L59.3506 16.968ZM63.0466 17.108L62.4007 15.8659L62.3902 15.8714L62.3798 15.877L63.0466 17.108ZM64.0266 16.128V14.728H63.1251L62.7521 15.5487L64.0266 16.128ZM68.6746 16.128L70.0435 16.4213L70.4064 14.728H68.6746V16.128ZM67.3306 18.928L66.2471 18.0415L66.241 18.0489L66.235 18.0565L67.3306 18.928ZM64.8106 20.86L64.2313 19.5855L64.2225 19.5895L64.8106 20.86ZM61.3106 20.16C60.1642 20.16 59.2063 19.9638 58.4072 19.6087L57.27 22.1673C58.487 22.7082 59.8437 22.96 61.3106 22.96V20.16ZM58.4072 19.6087C57.5656 19.2346 56.8803 18.7399 56.33 18.13L54.2513 20.006C55.0823 20.9268 56.0957 21.6454 57.27 22.1673L58.4072 19.6087ZM56.33 18.13C55.7514 17.4889 55.3092 16.7746 54.998 15.9809L52.3913 17.0031C52.8267 18.1134 53.4486 19.1164 54.2513 20.006L56.33 18.13ZM55.0065 16.0032C54.7097 15.2064 54.5626 14.3918 54.5626 13.552H51.7626C51.7626 14.7282 51.9703 15.8736 52.3827 16.9808L55.0065 16.0032ZM54.5626 13.552V12.992H51.7626V13.552H54.5626ZM54.5626 12.992C54.5626 12.1086 54.7118 11.2758 55.0065 10.4848L52.3827 9.50725C51.9681 10.6202 51.7626 11.7847 51.7626 12.992H54.5626ZM55.0013 10.4986C55.3154 9.68188 55.7497 8.97155 56.3032 8.35655L54.222 6.48345C53.4315 7.36178 52.8205 8.36879 52.3879 9.49343L55.0013 10.4986ZM56.2904 8.37066C56.8412 7.77514 57.5179 7.29701 58.34 6.94028L57.2253 4.37172C56.0686 4.87366 55.0654 5.57152 54.2349 6.46934L56.2904 8.37066ZM58.3601 6.93133C59.1425 6.57705 60.0611 6.384 61.1426 6.384V3.584C59.7228 3.584 58.4014 3.83894 57.2051 4.38066L58.3601 6.93133ZM61.1426 6.384C62.5908 6.384 63.7235 6.70739 64.6116 7.28041L66.1296 4.92758C64.7031 4.00728 63.0171 3.584 61.1426 3.584V6.384ZM64.6116 7.28042C65.5582 7.89112 66.2746 8.69038 66.7784 9.6981L69.2828 8.4459C68.5547 6.98962 67.4977 5.81022 66.1296 4.92758L64.6116 7.28042ZM66.7823 9.70577C67.293 10.7117 67.5546 11.8182 67.5546 13.048H70.3546C70.3546 11.4032 70.0003 9.859 69.279 8.43823L66.7823 9.70577ZM67.5546 13.048V14.672H70.3546V13.048H67.5546ZM68.9546 13.272H55.2906V16.072H68.9546V13.272ZM56.6906 14.672V11.928H53.8906V14.672H56.6906ZM55.2906 13.328H66.0146V10.528H55.2906V13.328ZM65.213 10.7802L63.449 12.0122L65.0522 14.3078L66.8162 13.0758L65.213 10.7802ZM65.6506 13.16C65.6506 12.1631 65.5141 11.2343 65.1837 10.4211L62.5896 11.4749C62.7445 11.8563 62.8506 12.4022 62.8506 13.16H65.6506ZM65.2023 10.4696C64.8946 9.6234 64.3853 8.89856 63.6379 8.3903L62.0634 10.7057C62.2493 10.8321 62.4306 11.0406 62.5709 11.4264L65.2023 10.4696ZM63.6599 8.40557C62.9205 7.88186 62.0479 7.672 61.1426 7.672V10.472C61.6187 10.472 61.8848 10.5795 62.0414 10.6904L63.6599 8.40557ZM61.1426 7.672C60.2415 7.672 59.3878 7.88783 58.6327 8.36327L60.1246 10.7327C60.3774 10.5735 60.6998 10.472 61.1426 10.472V7.672ZM58.6449 8.35568C57.8596 8.83891 57.3145 9.56402 56.9641 10.4149L59.5532 11.481C59.7255 11.0626 59.9269 10.8544 60.1124 10.7403L58.6449 8.35568ZM56.9698 10.4012C56.611 11.2469 56.4666 12.2336 56.4666 13.3H59.2666C59.2666 12.4624 59.3836 11.8811 59.5474 11.4948L56.9698 10.4012ZM56.4666 13.3C56.4666 14.2864 56.6055 15.2098 56.923 16.04L59.5383 15.04C59.3704 14.6009 59.2666 14.031 59.2666 13.3H56.4666ZM56.9281 16.0531C57.2652 16.909 57.8102 17.6236 58.574 18.1329L60.1272 15.8031C59.8831 15.6404 59.6814 15.403 59.5332 15.0269L56.9281 16.0531ZM58.574 18.1329C59.3719 18.6647 60.3198 18.872 61.3106 18.872V16.072C60.6961 16.072 60.3374 15.9433 60.1272 15.8031L58.574 18.1329ZM61.3106 18.872C62.1663 18.872 62.9961 18.7275 63.7134 18.339L62.3798 15.877C62.2011 15.9738 61.8736 16.072 61.3106 16.072V18.872ZM63.6925 18.3501C64.3888 17.988 64.9641 17.4487 65.3011 16.7073L62.7521 15.5487C62.7158 15.6286 62.6377 15.7426 62.4007 15.8659L63.6925 18.3501ZM64.0266 17.528H68.6746V14.728H64.0266V17.528ZM67.3057 15.8347C67.128 16.6641 66.7771 17.3937 66.2471 18.0415L68.4142 19.8145C69.2282 18.8196 69.7733 17.6826 70.0435 16.4213L67.3057 15.8347ZM66.235 18.0565C65.7296 18.6918 65.0718 19.2034 64.2313 19.5855L65.3899 22.1345C66.6028 21.5832 67.625 20.8069 68.4263 19.7995L66.235 18.0565ZM64.2225 19.5895C63.4309 19.956 62.4715 20.16 61.3106 20.16V22.96C62.8004 22.96 64.1743 22.6973 65.3988 22.1305L64.2225 19.5895ZM71.3047 21H69.9047V22.4H71.3047V21ZM71.3047 0.559999V-0.840001H69.9047V0.559999H71.3047ZM76.4007 0.559999H77.8007V-0.840001H76.4007V0.559999ZM76.4007 21V22.4H77.8007V21H76.4007ZM69.5687 4.256H68.1687V5.656H69.5687V4.256ZM69.5687 0.559999V-0.840001H68.1687V0.559999H69.5687ZM76.4007 0.559999H77.8007V-0.840001H76.4007V0.559999ZM76.4007 4.256V5.656H77.8007V4.256H76.4007ZM72.7047 21V0.559999H69.9047V21H72.7047ZM71.3047 1.96H76.4007V-0.840001H71.3047V1.96ZM75.0007 0.559999V21H77.8007V0.559999H75.0007ZM76.4007 19.6H71.3047V22.4H76.4007V19.6ZM70.9687 4.256V0.559999H68.1687V4.256H70.9687ZM69.5687 1.96H76.4007V-0.840001H69.5687V1.96ZM75.0007 0.559999V4.256H77.8007V0.559999H75.0007ZM76.4007 2.856H69.5687V5.656H76.4007V2.856ZM83.6588 20.944L84.1629 19.6379L83.6588 20.944ZM80.9428 19.236L79.9528 20.226L79.9591 20.2322L79.9654 20.2384L80.9428 19.236ZM79.2628 16.716L77.9594 17.2271L77.9637 17.2381L77.9682 17.2491L79.2628 16.716ZM79.2908 9.856L78.0014 9.3105L77.9969 9.32109L77.9926 9.33175L79.2908 9.856ZM81.0268 7.308L80.0494 6.3056L81.0268 7.308ZM90.8548 5.6L90.3429 6.90308L90.3507 6.90609L90.8548 5.6ZM93.5708 7.308L92.5934 8.3104V8.3104L93.5708 7.308ZM95.2788 9.856L93.9806 10.3802L93.9849 10.3909L93.9894 10.4015L95.2788 9.856ZM95.3068 16.716L94.0122 16.183L94.0077 16.1939L94.0034 16.2049L95.3068 16.716ZM93.6268 19.236L92.6494 18.2336L92.6431 18.2398L92.6368 18.246L93.6268 19.236ZM90.9388 20.944L90.4347 19.6379L90.9388 20.944ZM89.2308 16.8L88.4737 15.6224L88.4639 15.6287L88.4542 15.6351L89.2308 16.8ZM90.4068 15.4L91.6894 15.9611L91.6925 15.954L91.6956 15.9468L90.4068 15.4ZM90.3788 11.228L89.09 11.7748L89.1001 11.7987L89.1111 11.8222L90.3788 11.228ZM85.3948 9.772L84.6087 8.61353H84.6087L85.3948 9.772ZM84.1908 11.228L82.9163 10.6487L82.9121 10.6577L82.9082 10.6669L84.1908 11.228ZM84.1908 15.4L82.902 15.9468L82.905 15.954L82.9082 15.9611L84.1908 15.4ZM87.2988 20.16C86.0757 20.16 85.0381 19.9757 84.1629 19.6379L83.1547 22.2501C84.4075 22.7336 85.7965 22.96 87.2988 22.96V20.16ZM84.1629 19.6379C83.2589 19.289 82.519 18.8175 81.9201 18.2336L79.9654 20.2384C80.8599 21.1105 81.9307 21.7777 83.1547 22.2501L84.1629 19.6379ZM81.9327 18.246C81.3354 17.6488 80.879 16.964 80.5573 16.1829L77.9682 17.2491C78.4306 18.372 79.0941 19.3673 79.9528 20.226L81.9327 18.246ZM80.5661 16.2049C80.2604 15.4251 80.1028 14.5821 80.1028 13.664H77.3028C77.3028 14.9112 77.5185 16.1029 77.9594 17.2271L80.5661 16.2049ZM80.1028 13.664V12.992H77.3028V13.664H80.1028ZM80.1028 12.992C80.1028 12.039 80.2688 11.1729 80.5889 10.3802L77.9926 9.33175C77.5288 10.4804 77.3028 11.705 77.3028 12.992H80.1028ZM80.5801 10.4015C80.919 9.60049 81.3923 8.90695 82.0041 8.3104L80.0494 6.3056C79.168 7.16505 78.4839 8.17018 78.0014 9.3105L80.5801 10.4015ZM82.0041 8.3104C82.603 7.72652 83.3429 7.25501 84.2469 6.90609L83.2387 4.29391C82.0147 4.76633 80.9439 5.43348 80.0494 6.3056L82.0041 8.3104ZM84.2469 6.90609C85.1284 6.56585 86.1397 6.384 87.2988 6.384V3.584C85.8446 3.584 84.4851 3.81282 83.2387 4.29391L84.2469 6.90609ZM87.2988 6.384C88.4799 6.384 89.4871 6.56686 90.3429 6.90305L91.3667 4.29695C90.1318 3.8118 88.7684 3.584 87.2988 3.584V6.384ZM90.3507 6.90609C91.2547 7.25501 91.9946 7.72652 92.5934 8.3104L94.5481 6.3056C93.6536 5.43348 92.5829 4.76633 91.3589 4.29391L90.3507 6.90609ZM92.5934 8.3104C93.2006 8.90243 93.661 9.58876 93.9806 10.3802L96.5769 9.33175C96.1126 8.18191 95.4342 7.16957 94.5481 6.3056L92.5934 8.3104ZM93.9894 10.4015C94.3226 11.1889 94.4948 12.0475 94.4948 12.992H97.2948C97.2948 11.6965 97.0563 10.4644 96.5681 9.3105L93.9894 10.4015ZM94.4948 12.992V13.664H97.2948V12.992H94.4948ZM94.4948 13.664C94.4948 14.5734 94.331 15.4087 94.0122 16.183L96.6013 17.249C97.0665 16.1193 97.2948 14.9199 97.2948 13.664H94.4948ZM94.0034 16.2049C93.7041 16.9681 93.2567 17.6415 92.6494 18.2336L94.6041 20.2384C95.4902 19.3745 96.1628 18.3679 96.6101 17.2271L94.0034 16.2049ZM92.6368 18.246C92.0612 18.8217 91.3362 19.29 90.4347 19.6379L91.4429 22.2501C92.6694 21.7767 93.7364 21.1063 94.6167 20.226L92.6368 18.246ZM90.4347 19.6379C89.5595 19.9757 88.5218 20.16 87.2988 20.16V22.96C88.801 22.96 90.1901 22.7336 91.4429 22.2501L90.4347 19.6379ZM87.2988 18.704C88.2786 18.704 89.2144 18.4935 90.0074 17.9649L88.4542 15.6351C88.2391 15.7785 87.8869 15.904 87.2988 15.904V18.704ZM89.9878 17.9776C90.7544 17.4849 91.3232 16.7981 91.6894 15.9611L89.1242 14.8389C88.9677 15.1965 88.7525 15.4431 88.4737 15.6224L89.9878 17.9776ZM91.6956 15.9468C92.0401 15.1347 92.1988 14.2544 92.1988 13.328H89.3988C89.3988 13.9323 89.2961 14.4333 89.118 14.8532L91.6956 15.9468ZM92.1988 13.328C92.1988 12.3636 92.0304 11.4529 91.6464 10.6338L89.1111 11.8222C89.2872 12.1977 89.3988 12.687 89.3988 13.328H92.1988ZM91.6676 10.6812C91.3076 9.83265 90.748 9.12863 89.9889 8.61353L88.4167 10.9305C88.7029 11.1247 88.9273 11.3913 89.09 11.7748L91.6676 10.6812ZM89.9889 8.61353C89.1946 8.07454 88.2736 7.84 87.2988 7.84V10.64C87.8173 10.64 88.1656 10.7601 88.4167 10.9305L89.9889 8.61353ZM87.2988 7.84C86.324 7.84 85.403 8.07454 84.6087 8.61353L86.1809 10.9305C86.4319 10.7601 86.7803 10.64 87.2988 10.64V7.84ZM84.6087 8.61353C83.8578 9.12304 83.2949 9.81577 82.9163 10.6487L85.4653 11.8073C85.6467 11.4082 85.8864 11.1303 86.1809 10.9305L84.6087 8.61353ZM82.9082 10.6669C82.5537 11.477 82.3988 12.3756 82.3988 13.328H85.1988C85.1988 12.675 85.3052 12.1736 85.4734 11.7891L82.9082 10.6669ZM82.3988 13.328C82.3988 14.2544 82.5575 15.1347 82.902 15.9468L85.4796 14.8532C85.3014 14.4333 85.1988 13.9323 85.1988 13.328H82.3988ZM82.9082 15.9611C83.2743 16.7981 83.8431 17.4849 84.6097 17.9776L86.1238 15.6224C85.8451 15.4431 85.6299 15.1965 85.4734 14.8389L82.9082 15.9611ZM84.6097 17.9776C85.4055 18.4892 86.3274 18.704 87.2988 18.704V15.904C86.7395 15.904 86.3734 15.7828 86.1238 15.6224L84.6097 17.9776ZM98.1247 26.6H96.7247V28H98.1247V26.6ZM98.1247 5.544V4.144H96.7247V5.544H98.1247ZM102.157 5.544H103.557V4.144H102.157V5.544ZM102.157 12.208V13.608H103.557V12.208H102.157ZM101.709 12.208L100.31 12.1562L100.256 13.608H101.709V12.208ZM102.605 8.344L101.366 7.69195L101.361 7.70053L101.357 7.70916L102.605 8.344ZM104.873 5.936L105.565 7.153L105.574 7.14792L105.583 7.14271L104.873 5.936ZM111.033 5.684L110.451 6.95756L110.463 6.96283L110.475 6.9679L111.033 5.684ZM113.245 7.308L112.188 8.22596L112.194 8.23295L112.2 8.23986L113.245 7.308ZM114.645 9.772L113.317 10.2147L113.32 10.2264L113.325 10.2379L114.645 9.772ZM114.701 16.744L116.037 17.1631L116.039 17.1557L114.701 16.744ZM113.357 19.264L114.428 20.1658L114.433 20.159L114.439 20.152L113.357 19.264ZM111.145 20.916L110.574 19.6377L110.563 19.6424L111.145 20.916ZM105.013 20.804L104.357 22.0407L104.366 22.046L104.376 22.0511L105.013 20.804ZM102.829 18.648L101.596 19.3117L101.604 19.326L101.612 19.34L102.829 18.648ZM101.989 15.008L103.074 14.1237L100.484 10.9451L100.589 15.0439L101.989 15.008ZM103.221 16.52H104.621V16.0218L104.306 15.6357L103.221 16.52ZM103.221 26.6V28H104.621V26.6H103.221ZM108.401 16.8L109.177 17.9649L109.187 17.9585L108.401 16.8ZM109.605 15.344L108.345 14.7332L108.337 14.7489L108.33 14.7647L109.605 15.344ZM109.605 11.172L108.337 11.7662L108.348 11.7904L108.361 11.8141L109.605 11.172ZM108.429 9.8L107.652 10.9649L107.667 10.975L107.683 10.9847L108.429 9.8ZM104.901 9.716L104.258 8.47249L104.249 8.47715L104.24 8.48193L104.901 9.716ZM103.613 10.948L104.802 11.6863V11.6863L103.613 10.948ZM103.641 15.736L102.482 16.5221L102.489 16.532L102.496 16.5417L103.641 15.736ZM104.985 16.912L104.342 18.1555L104.359 18.1644L104.376 18.1728L104.985 16.912ZM99.5247 26.6V5.544H96.7247V26.6H99.5247ZM98.1247 6.944H102.157V4.144H98.1247V6.944ZM100.757 5.544V12.208H103.557V5.544H100.757ZM102.157 10.808H101.709V13.608H102.157V10.808ZM103.108 12.2598C103.158 10.8983 103.424 9.82014 103.853 8.97884L101.357 7.70916C100.702 8.99586 100.371 10.4937 100.31 12.1562L103.108 12.2598ZM103.844 8.99604C104.292 8.14469 104.868 7.5493 105.565 7.153L104.181 4.71899C102.974 5.40536 102.038 6.41531 101.366 7.69195L103.844 8.99604ZM105.583 7.14271C106.295 6.72344 107.137 6.496 108.149 6.496V3.696C106.697 3.696 105.354 4.02856 104.163 4.72929L105.583 7.14271ZM108.149 6.496C109.038 6.496 109.797 6.65889 110.451 6.95756L111.614 4.41043C110.551 3.92511 109.388 3.696 108.149 3.696V6.496ZM110.475 6.9679C111.141 7.25769 111.708 7.67373 112.188 8.22596L114.302 6.39004C113.549 5.52361 112.642 4.85698 111.591 4.4001L110.475 6.9679ZM112.2 8.23986C112.679 8.77682 113.054 9.42795 113.317 10.2147L115.973 9.32928C115.6 8.21205 115.043 7.22051 114.29 6.37614L112.2 8.23986ZM113.325 10.2379C113.601 11.0224 113.749 11.908 113.749 12.908H116.549C116.549 11.6307 116.36 10.4256 115.965 9.30605L113.325 10.2379ZM113.749 12.908V13.58H116.549V12.908H113.749ZM113.749 13.58C113.749 14.5958 113.616 15.5101 113.363 16.3323L116.039 17.1557C116.383 16.0366 116.549 14.8415 116.549 13.58H113.749ZM113.365 16.3249C113.117 17.1161 112.751 17.7947 112.274 18.376L114.439 20.152C115.157 19.2773 115.687 18.2759 116.037 17.1631L113.365 16.3249ZM112.286 18.3622C111.83 18.9041 111.265 19.3287 110.574 19.6378L111.716 22.1942C112.779 21.7193 113.689 21.0426 114.428 20.1658L112.286 18.3622ZM110.563 19.6424C109.918 19.937 109.133 20.104 108.177 20.104V22.904C109.46 22.904 110.654 22.679 111.726 22.1896L110.563 19.6424ZM108.177 20.104C107.167 20.104 106.337 19.9078 105.649 19.5569L104.376 22.0511C105.518 22.6335 106.797 22.904 108.177 22.904V20.104ZM105.669 19.5673C105.003 19.2139 104.464 18.6908 104.046 17.956L101.612 19.34C102.277 20.5092 103.193 21.4234 104.357 22.0407L105.669 19.5673ZM104.061 17.9843C103.671 17.2588 103.422 16.2763 103.388 14.9721L100.589 15.0439C100.63 16.6517 100.941 18.0959 101.596 19.3117L104.061 17.9843ZM100.903 15.8923L102.135 17.4043L104.306 15.6357L103.074 14.1237L100.903 15.8923ZM101.821 16.52V26.6H104.621V16.52H101.821ZM103.221 25.2H98.1247V28H103.221V25.2ZM106.637 18.704C107.554 18.704 108.419 18.4707 109.177 17.9649L107.624 15.6351C107.375 15.8013 107.064 15.904 106.637 15.904V18.704ZM109.187 17.9585C109.938 17.449 110.501 16.7562 110.879 15.9233L108.33 14.7647C108.149 15.1638 107.909 15.4417 107.615 15.6415L109.187 17.9585ZM110.864 15.9548C111.268 15.1225 111.453 14.2088 111.453 13.244H108.653C108.653 13.8472 108.539 14.3335 108.345 14.7332L110.864 15.9548ZM111.453 13.244C111.453 12.269 111.271 11.348 110.849 10.5299L108.361 11.8141C108.536 12.1533 108.653 12.6136 108.653 13.244H111.453ZM110.872 10.5778C110.491 9.76479 109.93 9.09057 109.175 8.61527L107.683 10.9847C107.936 11.1441 108.158 11.3845 108.337 11.7662L110.872 10.5778ZM109.205 8.63513C108.44 8.12506 107.564 7.896 106.637 7.896V10.696C107.091 10.696 107.409 10.8029 107.652 10.9649L109.205 8.63513ZM106.637 7.896C105.799 7.896 105 8.08852 104.258 8.47249L105.544 10.9595C105.884 10.7835 106.242 10.696 106.637 10.696V7.896ZM104.24 8.48193C103.484 8.88658 102.879 9.47569 102.423 10.2097L104.802 11.6863C105.019 11.3376 105.272 11.1054 105.562 10.9501L104.24 8.48193ZM102.423 10.2097C101.924 11.0137 101.709 11.9346 101.709 12.908H104.509C104.509 12.3507 104.629 11.965 104.802 11.6863L102.423 10.2097ZM101.709 12.908V13.86H104.509V12.908H101.709ZM101.709 13.86C101.709 14.8243 101.947 15.7336 102.482 16.5221L104.799 14.9499C104.625 14.6931 104.509 14.3517 104.509 13.86H101.709ZM102.496 16.5417C102.979 17.2277 103.598 17.7708 104.342 18.1555L105.628 15.6685C105.289 15.4932 105.012 15.2523 104.786 14.9303L102.496 16.5417ZM104.376 18.1728C105.093 18.5189 105.851 18.704 106.637 18.704V15.904C106.303 15.904 105.959 15.8278 105.593 15.6512L104.376 18.1728ZM121.169 20.888L120.6 22.1673L121.169 20.888ZM118.621 19.068L119.66 18.13L118.621 19.068ZM117.025 16.492L115.713 16.9808L115.717 16.992L115.722 17.0031L117.025 16.492ZM117.025 9.996L115.718 9.49343L115.716 9.50032L115.713 9.50725L117.025 9.996ZM118.593 7.42L117.565 6.46934L117.559 6.47635L117.552 6.48345L118.593 7.42ZM121.113 5.656L121.67 6.94028L121.68 6.93589L121.69 6.93133L121.113 5.656ZM128.701 6.104L127.942 7.28041V7.28042L128.701 6.104ZM131.361 9.072L130.109 9.69811L130.113 9.70577L131.361 9.072ZM132.285 14.672V16.072H133.685V14.672H132.285ZM118.621 14.672H117.221V16.072H118.621V14.672ZM118.621 11.928V10.528H117.221V11.928H118.621ZM129.345 11.928L130.147 13.0758L133.795 10.528H129.345V11.928ZM127.581 13.16H126.181V15.8454L128.383 14.3078L127.581 13.16ZM127.217 10.948L125.901 11.4264L125.91 11.4509L125.92 11.4749L127.217 10.948ZM126.181 9.548L125.372 10.6904L125.383 10.6982L125.394 10.7057L126.181 9.548ZM122.709 9.548L123.443 10.7403L123.449 10.7366L123.455 10.7327L122.709 9.548ZM121.589 10.948L122.878 11.4948L122.881 11.4879L122.883 11.481L121.589 10.948ZM121.561 15.54L120.253 16.04L120.258 16.0531L121.561 15.54ZM122.681 16.968L123.458 15.8031L122.681 16.968ZM126.377 17.108L125.731 15.8659L125.721 15.8714L125.71 15.877L126.377 17.108ZM127.357 16.128V14.728H126.455L126.082 15.5487L127.357 16.128ZM132.005 16.128L133.374 16.4213L133.737 14.728H132.005V16.128ZM130.661 18.928L129.577 18.0415L129.571 18.0489L129.565 18.0565L130.661 18.928ZM128.141 20.86L127.562 19.5855L127.553 19.5895L128.141 20.86ZM124.641 20.16C123.495 20.16 122.537 19.9638 121.738 19.6087L120.6 22.1673C121.817 22.7082 123.174 22.96 124.641 22.96V20.16ZM121.738 19.6087C120.896 19.2346 120.211 18.7399 119.66 18.13L117.582 20.006C118.413 20.9268 119.426 21.6454 120.6 22.1673L121.738 19.6087ZM119.66 18.13C119.082 17.4889 118.64 16.7746 118.328 15.9809L115.722 17.0031C116.157 18.1134 116.779 19.1164 117.582 20.006L119.66 18.13ZM118.337 16.0032C118.04 15.2064 117.893 14.3918 117.893 13.552H115.093C115.093 14.7282 115.301 15.8736 115.713 16.9808L118.337 16.0032ZM117.893 13.552V12.992H115.093V13.552H117.893ZM117.893 12.992C117.893 12.1086 118.042 11.2758 118.337 10.4848L115.713 9.50725C115.298 10.6202 115.093 11.7847 115.093 12.992H117.893ZM118.332 10.4986C118.646 9.68188 119.08 8.97155 119.634 8.35655L117.552 6.48345C116.762 7.36178 116.151 8.36879 115.718 9.49343L118.332 10.4986ZM119.621 8.37066C120.172 7.77514 120.848 7.29701 121.67 6.94028L120.556 4.37172C119.399 4.87366 118.396 5.57152 117.565 6.46934L119.621 8.37066ZM121.69 6.93133C122.473 6.57705 123.391 6.384 124.473 6.384V3.584C123.053 3.584 121.732 3.83894 120.535 4.38066L121.69 6.93133ZM124.473 6.384C125.921 6.384 127.054 6.70739 127.942 7.28041L129.46 4.92758C128.033 4.00728 126.347 3.584 124.473 3.584V6.384ZM127.942 7.28042C128.889 7.89112 129.605 8.69038 130.109 9.6981L132.613 8.4459C131.885 6.98962 130.828 5.81022 129.46 4.92758L127.942 7.28042ZM130.113 9.70577C130.623 10.7117 130.885 11.8182 130.885 13.048H133.685C133.685 11.4032 133.331 9.859 132.609 8.43823L130.113 9.70577ZM130.885 13.048V14.672H133.685V13.048H130.885ZM132.285 13.272H118.621V16.072H132.285V13.272ZM120.021 14.672V11.928H117.221V14.672H120.021ZM118.621 13.328H129.345V10.528H118.621V13.328ZM128.543 10.7802L126.779 12.0122L128.383 14.3078L130.147 13.0758L128.543 10.7802ZM128.981 13.16C128.981 12.1631 128.844 11.2343 128.514 10.4211L125.92 11.4749C126.075 11.8563 126.181 12.4022 126.181 13.16H128.981ZM128.533 10.4696C128.225 9.6234 127.716 8.89856 126.968 8.3903L125.394 10.7057C125.58 10.8321 125.761 11.0406 125.901 11.4264L128.533 10.4696ZM126.99 8.40557C126.251 7.88186 125.378 7.672 124.473 7.672V10.472C124.949 10.472 125.215 10.5795 125.372 10.6904L126.99 8.40557ZM124.473 7.672C123.572 7.672 122.718 7.88783 121.963 8.36327L123.455 10.7327C123.708 10.5735 124.03 10.472 124.473 10.472V7.672ZM121.975 8.35568C121.19 8.83891 120.645 9.56402 120.294 10.4149L122.883 11.481C123.056 11.0626 123.257 10.8544 123.443 10.7403L121.975 8.35568ZM120.3 10.4012C119.941 11.2469 119.797 12.2336 119.797 13.3H122.597C122.597 12.4624 122.714 11.8811 122.878 11.4948L120.3 10.4012ZM119.797 13.3C119.797 14.2864 119.936 15.2098 120.253 16.04L122.869 15.04C122.701 14.6009 122.597 14.031 122.597 13.3H119.797ZM120.258 16.0531C120.596 16.909 121.14 17.6236 121.904 18.1329L123.458 15.8031C123.213 15.6404 123.012 15.403 122.864 15.0269L120.258 16.0531ZM121.904 18.1329C122.702 18.6647 123.65 18.872 124.641 18.872V16.072C124.026 16.072 123.668 15.9433 123.458 15.8031L121.904 18.1329ZM124.641 18.872C125.497 18.872 126.326 18.7275 127.044 18.339L125.71 15.877C125.531 15.9738 125.204 16.072 124.641 16.072V18.872ZM127.023 18.3501C127.719 17.988 128.294 17.4487 128.631 16.7073L126.082 15.5487C126.046 15.6286 125.968 15.7426 125.731 15.8659L127.023 18.3501ZM127.357 17.528H132.005V14.728H127.357V17.528ZM130.636 15.8347C130.458 16.6641 130.107 17.3937 129.577 18.0415L131.744 19.8145C132.558 18.8196 133.104 17.6826 133.374 16.4213L130.636 15.8347ZM129.565 18.0565C129.06 18.6918 128.402 19.2034 127.562 19.5855L128.72 22.1345C129.933 21.5832 130.955 20.8069 131.757 19.7995L129.565 18.0565ZM127.553 19.5895C126.761 19.956 125.802 20.16 124.641 20.16V22.96C126.131 22.96 127.505 22.6973 128.729 22.1305L127.553 19.5895ZM134.411 21H133.011V22.4H134.411V21ZM134.411 5.544V4.144H133.011V5.544H134.411ZM138.443 5.544H139.843V4.144H138.443V5.544ZM138.443 12.264V13.664H139.843V12.264H138.443ZM138.387 12.264H136.987V13.664H138.387V12.264ZM139.731 7.168L138.607 6.33342L138.599 6.34456L139.731 7.168ZM144.267 5.32H145.667V3.92H144.267V5.32ZM144.267 9.688V11.088H145.667V9.688H144.267ZM140.431 10.612L139.456 9.60739L139.448 9.61466L139.441 9.62205L140.431 10.612ZM139.507 21V22.4H140.907V21H139.507ZM135.811 21V5.544H133.011V21H135.811ZM134.411 6.944H138.443V4.144H134.411V6.944ZM137.043 5.544V12.264H139.843V5.544H137.043ZM138.443 10.864H138.387V13.664H138.443V10.864ZM139.787 12.264C139.787 10.274 140.201 8.90225 140.863 7.99144L138.599 6.34456C137.469 7.89775 136.987 9.92334 136.987 12.264H139.787ZM140.855 8.00254C141.475 7.16805 142.341 6.72 143.651 6.72V3.92C141.564 3.92 139.817 4.70395 138.607 6.33346L140.855 8.00254ZM143.651 6.72H144.267V3.92H143.651V6.72ZM142.867 5.32V9.688H145.667V5.32H142.867ZM144.267 8.288H143.091V11.088H144.267V8.288ZM143.091 8.288C141.697 8.288 140.421 8.67092 139.456 9.60739L141.406 11.6166C141.711 11.3211 142.207 11.088 143.091 11.088V8.288ZM139.441 9.62205C138.485 10.5781 138.107 11.8695 138.107 13.272H140.907C140.907 12.3598 141.145 11.8779 141.421 11.6019L139.441 9.62205ZM138.107 13.272V21H140.907V13.272H138.107ZM139.507 19.6H134.411V22.4H139.507V19.6Z" fill="black" mask="url(#path-1-outside-1_320_288)"/>
</svg>
