<svg width="889" height="596" viewBox="0 0 889 596" fill="none" xmlns="http://www.w3.org/2000/svg">
<g clip-path="url(#clip0_181_1015)">
<g clip-path="url(#clip1_181_1015)">
<path d="M501.543 438.674C577.506 481.449 534.73 586.913 509.655 591.338C490.342 594.746 426.851 592.792 396.079 591.338L157.866 415.074L297.255 395.899C340.03 395.899 440.772 404.454 501.543 438.674Z" fill="white"/>
<path d="M396.079 591.338C397.178 591.392 394.889 591.281 396.079 591.338ZM396.079 591.338C426.851 592.792 490.342 594.746 509.655 591.338C534.73 586.913 577.506 481.449 501.543 438.674C440.772 404.454 340.03 395.899 297.255 395.899L157.866 415.074L396.079 591.338Z" stroke="black" stroke-width="2.91102"/>
<path d="M480.894 453.152C428.384 443.122 385.756 473.965 371.006 490.64C368.542 487.195 365.878 483.789 363.002 480.44C367.536 460.527 455.819 439.139 480.894 453.152Z" fill="#000001"/>
<path d="M401.404 593.52C399.54 593.439 397.761 593.358 396.08 593.278L201.514 449.312C210.085 446.413 232.177 437.494 251.971 425.009C386.267 440.923 407.549 543.98 401.404 593.52Z" fill="#0E1729"/>
<path d="M179.255 593.277C82.6433 562.302 157.868 422.176 157.868 417.014L194.006 412.042C378.087 423.405 405.424 537.6 396.082 593.277L365.016 849.191H284.963L278.081 593.277H179.255Z" fill="white" stroke="black" stroke-width="2.91102"/>
<path d="M297.255 540.178C285.455 551.978 279.554 580.495 278.079 593.278H267.017C269.967 578.774 280.145 547.848 297.255 540.178Z" fill="#000001"/>
<rect width="796" height="3" transform="matrix(-1 0 0 1 795 593)" fill="black"/>
<path d="M282.286 146.087C286.17 141.143 296.27 125.958 305.593 104.77C303.474 102.297 299.448 94.8104 300.296 84.6398C311.314 82.9447 317.991 59.2134 319.952 47.5596C305.321 39.4435 317.788 17.7928 313.009 16.8366C307.712 15.7766 293.939 21.0737 293.939 34.8464C293.939 48.619 270.343 42.118 264.275 39.0841C249.444 31.6681 254.74 49.6795 261.097 66.63C264.487 72.5628 252.622 83.934 246.265 88.8781C244.571 105.829 259.685 131.962 267.454 142.909C266.394 174.692 266.182 238.258 273.81 238.258C278.895 228.088 281.579 172.573 282.286 146.087Z" fill="white" stroke="black" stroke-width="1.94068"/>
<path d="M291.823 49.6726C293.589 51.4383 296.061 56.453 291.823 62.3858" stroke="#241715" stroke-width="0.970341"/>
<path d="M283.348 65.5719C284.054 69.4565 287.162 75.3187 293.942 67.6908" stroke="#241715" stroke-width="0.970341"/>
<path d="M260.04 52.8538C258.628 48.9692 256.862 41.4119 261.1 42.2595" stroke="#241715" stroke-width="0.970341"/>
<path d="M301.428 96.2916C300.494 93.0569 299.925 89.1066 300.298 84.6383C294.427 87.817 284.408 88.8765 263.219 74.0435C262.373 85.0616 288.339 93.4664 301.428 96.2916Z" fill="black"/>
<path d="M247.326 16.8356C239.91 34.846 256.861 59.213 261.099 66.629C254.742 49.6786 250.505 31.6671 264.277 39.0832C270.25 42.2994 293.941 48.6181 293.941 34.8454C293.941 21.0728 307.714 15.7756 313.011 16.8356C317.79 17.7919 305.323 39.4426 319.953 47.5587C321.54 48.4386 323.444 49.1594 325.724 49.6775C320.427 42.2615 322.546 43.3209 326.783 25.3105C331.021 7.30016 311.951 3.06296 293.941 0.944096C275.931 -1.17477 254.742 -1.17477 247.326 16.8356Z" fill="black"/>
<path d="M147.74 131.256C161.301 113.457 219.076 95.5883 246.268 88.8785C244.573 105.829 259.687 131.962 267.456 142.91C266.396 174.693 266.185 238.259 273.812 238.259C278.898 228.088 281.582 172.574 282.288 146.088C286.173 141.144 296.272 125.959 305.595 104.77C307.714 111.127 364.924 154.563 374.459 168.336C383.994 182.109 387.172 314.538 387.172 326.192C387.172 337.846 391.41 417.303 356.448 417.303C328.479 417.303 214.131 421.188 156.216 422.6C147.74 332.902 134.18 149.054 147.74 131.256Z" fill="black"/>
<path d="M387.169 326.185C329.253 314.178 213.422 300.971 213.422 344.196C213.422 387.42 267.1 411.849 293.939 418.659M213.422 98.3068C220.485 101.518 235.458 116.629 238.848 151.379C243.086 194.815 256.689 209.647 267.709 209.647M278.523 211.766C287.546 216.71 307.288 220.454 314.068 195.875C322.543 165.151 340.226 148.2 359.989 153.497M181.639 110.061C183.758 109.165 217.659 132.309 220.838 185.28C224.016 238.252 257.918 337.839 327.841 284.867C354.328 258.381 379.849 241.784 384.135 243.549M305.592 418.339C296.058 409.163 279.53 387.844 289.701 375.979C299.872 364.113 355.503 380.216 382.047 389.751M142.652 158.795C165.536 172.92 207.701 217.911 193.292 284.867C180.579 323.007 157.347 319.122 147.32 312.412M151.153 364.325C164.847 364.505 190.962 376.254 185.876 421.805" stroke="white" stroke-width="0.970341"/>
<path d="M273.812 417.293V239.308" stroke="#027269" stroke-width="0.970341"/>
<path d="M273.176 415.56L278.383 376.847C290.223 378.995 314.881 381.076 333.929 382.881C353.87 384.771 358.895 395.241 345.51 398.585C352.511 397.711 360.35 407.364 349.178 411.686C357.373 414.597 341.164 417.845 333.218 417.861C337.766 418.548 345.651 419.815 344.579 424.634C343.507 429.452 296.531 420.592 273.176 415.56Z" fill="white"/>
<path d="M273.176 415.561L278.383 376.848C281.137 377.348 284.585 377.844 288.495 378.334L300.34 420.952C290.388 419.143 280.591 417.159 273.176 415.561Z" fill="black"/>
<path d="M332.894 418.146L316.42 413.509" stroke="black" stroke-width="0.970341"/>
<path d="M345.404 407.801L316.524 404.295" stroke="black" stroke-width="0.970341"/>
<path d="M345.509 398.584L316.012 393.482" stroke="black" stroke-width="0.970341"/>
<path d="M116.308 381.565C113.745 340.991 110.946 136.522 156.714 125.5C209.618 112.759 208.924 307.755 185.957 352.24L293.984 363.222L283.848 430.623C231.327 426.955 120.551 448.703 116.308 381.565Z" fill="black"/>
<path d="M156.715 125.499C209.618 112.759 208.925 307.754 185.957 352.24L293.985 363.222" stroke="white" stroke-width="0.970341"/>
<path d="M134.678 154.883C151.025 156.661 187.355 166.099 196.267 188.221M124.507 190.481C139.239 196.925 173.729 218.617 178.08 240.885C182.43 263.152 136.354 255.634 117.726 251.505M116.596 290.493C132.08 297.722 186.356 302.52 198.527 285.973M116.032 359.993C131.889 350.37 177.54 331.161 189.486 338.522M232.429 356.603C239.21 371.294 228.591 425.315 198.527 431.189" stroke="white" stroke-width="0.970341"/>
<path d="M579.676 279.458H397.74C394.553 279.458 391.689 281.407 390.519 284.372L336.485 421.342C335.315 424.307 332.452 426.256 329.264 426.256H187.749C185.146 426.256 183.036 428.366 183.036 430.969C183.036 433.573 185.146 435.683 187.749 435.683H523.882C527.065 435.683 529.925 433.74 531.098 430.782L586.893 290.082C588.913 284.986 585.158 279.458 579.676 279.458Z" fill="white" stroke="black" stroke-width="2.91102"/>
<path d="M391.349 282.129L331.498 426.256H335.54C338.674 426.256 341.501 424.371 342.706 421.477L399.35 285.456C400.538 282.603 398.441 279.458 395.35 279.458C393.599 279.458 392.02 280.512 391.349 282.129Z" fill="black"/>
<path d="M531.098 430.782L586.893 290.082C588.913 284.986 585.158 279.458 579.676 279.458H565.648C564.493 279.458 563.357 279.716 562.308 280.199C557.342 282.486 549.046 286.082 535.269 293.043C489.178 316.331 483.356 365.818 493.059 390.077C500.926 409.744 396.947 430.071 356.095 435.683H523.882C527.065 435.683 529.925 433.74 531.098 430.782Z" fill="black"/>
<ellipse cx="468.301" cy="344.502" rx="11.5736" ry="13.3097" transform="rotate(20.5588 468.301 344.502)" fill="black"/>
</g>
</g>
<defs>
<clipPath id="clip0_181_1015">
<rect width="889" height="596" fill="white" transform="matrix(-1 0 0 1 889 0)"/>
</clipPath>
<clipPath id="clip1_181_1015">
<rect width="889" height="596" fill="white" transform="matrix(-1 0 0 1 889 0)"/>
</clipPath>
</defs>
</svg>
